<?xml version="1.0" encoding="UTF-8" standalone="no"?>
<!-- Created with Inkscape (http://www.inkscape.org/) -->

<svg
   xmlns:dc="http://purl.org/dc/elements/1.1/"
   xmlns:cc="http://creativecommons.org/ns#"
   xmlns:rdf="http://www.w3.org/1999/02/22-rdf-syntax-ns#"
   xmlns:svg="http://www.w3.org/2000/svg"
   xmlns="http://www.w3.org/2000/svg"
   xmlns:sodipodi="http://sodipodi.sourceforge.net/DTD/sodipodi-0.dtd"
   xmlns:inkscape="http://www.inkscape.org/namespaces/inkscape"
   width="420.1763mm"
   height="39.912571mm"
   viewBox="0 0 420.17629 39.912571"
   version="1.1"
   id="svg4116"
   inkscape:version="0.92.3 (2405546, 2018-03-11)"
   sodipodi:docname="banner-moagem-logo-2.svg">
  <defs
     id="defs4110">
    <clipPath
       clipPathUnits="userSpaceOnUse"
       id="clipPath4249">
      <rect
         style="fill:#ffffff;stroke-width:0.26458332"
         id="rect4251"
         width="244.48853"
         height="72.706139"
         x="-17.705639"
         y="197.54703" />
    </clipPath>
    <clipPath
       clipPathUnits="userSpaceOnUse"
       id="clipPath4257">
      <rect
         style="fill:#ffffff;stroke-width:0.26458332"
         id="rect4259"
         width="220.002"
         height="72.706139"
         x="-0.7534315"
         y="199.80733" />
    </clipPath>
    <clipPath
       clipPathUnits="userSpaceOnUse"
       id="clipPath4727">
      <rect
         style="fill:#ffffff;stroke-width:0.22647363"
         id="rect4729"
         width="153.3233"
         height="38.04829"
         x="145.22394"
         y="219.20819" />
    </clipPath>
    <clipPath
       clipPathUnits="userSpaceOnUse"
       id="clipPath4731">
      <rect
         style="fill:#ffffff;stroke-width:0.22647363"
         id="rect4733"
         width="153.3233"
         height="38.04829"
         x="145.22394"
         y="219.20819" />
    </clipPath>
    <clipPath
       clipPathUnits="userSpaceOnUse"
       id="clipPath4764">
      <rect
         style="fill:#ffffff;stroke-width:0.99999994"
         id="rect4766"
         width="775.97522"
         height="135.26172"
         x="11.488128"
         y="433.32379" />
    </clipPath>
  </defs>
  <sodipodi:namedview
     id="base"
     pagecolor="#ffffff"
     bordercolor="#666666"
     borderopacity="1.0"
     inkscape:pageopacity="0.0"
     inkscape:pageshadow="2"
     inkscape:zoom="0.7023421"
     inkscape:cx="465.15832"
     inkscape:cy="-136.31494"
     inkscape:document-units="mm"
     inkscape:current-layer="layer1"
     showgrid="false"
     fit-margin-top="0"
     fit-margin-left="0"
     fit-margin-right="0"
     fit-margin-bottom="0"
     inkscape:window-width="3066"
     inkscape:window-height="1689"
     inkscape:window-x="134"
     inkscape:window-y="55"
     inkscape:window-maximized="1" />
  <metadata
     id="metadata4113">
    <rdf:RDF>
      <cc:Work
         rdf:about="">
        <dc:format>image/svg+xml</dc:format>
        <dc:type
           rdf:resource="http://purl.org/dc/dcmitype/StillImage" />
        <dc:title></dc:title>
      </cc:Work>
    </rdf:RDF>
  </metadata>
  <g
     inkscape:label="Layer 1"
     inkscape:groupmode="layer"
     id="layer1"
     transform="translate(-5.2998602,-110.52568)"
     style="display:inline">
    <path
       id="path4253"
       style="fill:#f9f9f2;stroke-width:1.00000012"
       d="m 472.51758,450.52148 c -14.70677,-0.0227 -28.89634,5.63072 -39.79688,16.53125 -24.51057,24.51058 -21.24286,65.86625 6.78321,85.86524 6.93721,4.95027 10.87448,6.84057 18.95507,9.0957 3.56436,0.99466 8.83386,1.35297 16.70704,1.13867 12.74003,-0.34699 21.29274,-2.60307 28.5,-7.52148 l 4,-2.73047 v -27.95117 -27.95313 l -8.41407,-0.29297 c -6.05661,-0.21091 -8.6439,0.0693 -9.23437,1 -0.4512,0.71124 -0.82838,10.6185 -0.83594,22.01563 l -0.0156,20.72266 -5.66407,1.64648 c -7.41233,2.15482 -19.0575,1.54037 -25.55273,-1.34961 -14.58206,-6.48809 -23.56387,-23.73902 -20.69336,-39.74219 2.14148,-11.93899 9.17076,-21.44291 20.125,-27.21289 4.77248,-2.51403 6.26729,-2.78447 15.4043,-2.78515 9.66073,-7.6e-4 10.44126,0.16205 17.16406,3.61133 3.8733,1.98717 7.45308,3.33707 7.95508,3 0.50199,-0.33729 2.83997,-3.47347 5.19726,-6.97071 5.33356,-7.91282 4.87195,-9.45441 -4.15039,-13.85351 -8.59987,-4.19314 -17.60953,-6.25008 -26.43359,-6.26368 z m 97.82812,0.84961 c -18.9947,-0.0501 -38.03031,0.37602 -38.98047,1.32618 -1.77868,1.77857 -1.72898,108.41588 0.0508,109.14257 0.68749,0.28082 18.80001,0.4315 40.25,0.33399 l 39,-0.17774 0.2871,-9.25 0.28711,-9.25 h -30.03711 -30.0371 v -8.98047 -8.98242 l 23.25,-0.26758 23.25,-0.26953 v -8 -8 l -23.27149,-0.26757 -23.27148,-0.26758 0.27148,-18.73242 0.27149,-18.73047 29,-0.5 29,-0.5 0.29492,-7.84571 c 0.18433,-4.92306 -0.14118,-8.36816 -0.87305,-9.25 -0.79238,-0.95476 -19.74749,-1.48109 -38.74219,-1.53125 z m 158.35157,0.082 c -2.87199,-0.0647 -5.7612,0.41743 -6.83204,1.48829 -0.7946,0.7946 -6.06966,13.05711 -11.7207,27.25 -5.651,14.19292 -10.57151,26.14645 -10.93359,26.5625 -0.36219,0.41605 -5.53137,-11.05896 -11.48828,-25.5 -5.95695,-14.44105 -11.51487,-27.04532 -12.34961,-28.00782 -1.82332,-2.10232 -10.96008,-2.44377 -13.38086,-0.5 -0.85622,0.6875 -10.923,25.24967 -22.36914,54.58203 -16.98407,43.52414 -20.54725,53.49741 -19.38282,54.23438 v 0.002 c 1.89903,1.2011 15.5824,1.18638 17.83594,-0.0195 1.16119,-0.62143 6.75821,-14.15995 16.12695,-39.00781 7.89173,-20.93046 14.65475,-37.71334 15.0293,-37.29688 0.3747,0.41643 5.30275,12.23087 10.95117,26.25586 5.64839,14.025 10.96736,26.06251 11.81836,26.75 1.80159,1.45542 8.96944,1.65535 12.41407,0.34571 1.9782,-0.75209 4.13061,-5.32042 12.7539,-27.0586 5.70611,-14.38431 10.63445,-26.31203 10.95117,-26.50781 0.3168,-0.19578 6.8691,16.35372 14.56055,36.77734 7.69141,20.42359 14.77188,37.9349 15.73438,38.91407 2.36624,2.4074 16.82526,2.59973 18.77539,0.25 1.06114,-1.27862 -2.14085,-10.11883 -19.46485,-53.75 -11.40374,-28.72086 -21.44005,-53.00626 -22.30273,-53.96875 -1.00158,-1.11755 -3.85458,-1.73025 -6.72656,-1.79493 z m -601.05274,0.004 c -2.48888,0.0507 -4.81146,0.51457 -5.72461,1.42774 -0.76373,0.76372 -6.04165,13.02623 -11.72851,27.25 -5.68691,14.22379 -10.627023,26.19899 -10.978519,26.60937 -0.351534,0.41038 -5.515454,-11.06459 -11.476563,-25.5 -5.961109,-14.43538 -11.523117,-27.03555 -12.359375,-27.99805 -1.826419,-2.10213 -10.970023,-2.444 -13.373047,-0.5 -0.849827,0.6875 -10.919403,25.24955 -22.375,54.58008 -17.033284,43.61163 -20.562889,53.48533 -19.394531,54.23242 1.907376,1.20775 15.587701,1.19417 17.851563,-0.0176 1.173121,-0.62786 6.717379,-14.03492 16.130859,-39.00391 7.889046,-20.92543 14.659448,-37.70709 15.044922,-37.29297 0.385474,0.41412 5.305316,12.22696 10.933593,26.25195 5.628284,14.025 10.934979,26.06251 11.792969,26.75 0.857991,0.6875 3.470603,1.25 5.804688,1.25 8.533911,0 8.090281,0.63939 19.398441,-27.96679 5.68195,-14.37366 10.59923,-26.30013 10.92578,-26.50196 0.32662,-0.20186 6.88249,16.34328 14.57031,36.76758 7.68779,20.4243 14.76602,37.93726 15.72852,38.91797 2.36662,2.4116 16.82389,2.60569 18.77734,0.25195 1.06341,-1.28133 -2.12455,-10.08621 -19.45508,-53.75 -11.39909,-28.71968 -21.43446,-53.00625 -22.30273,-53.96875 -1.1143,-1.23521 -4.59102,-1.85417 -7.79102,-1.78906 z m 229.77149,0.0645 c -4.20266,-0.082 -9.36048,0.37457 -10.40625,1.22461 -1.51218,1.2291 -24.2925,57.37948 -36.22461,88.31446 -0.42234,2.28999 -1.09573,4.33755 -2.1875,5.69336 -3.15705,8.30316 -5.18264,13.94924 -5.03125,14.34375 0.40505,1.05547 2.75683,1.39843 9.58398,1.39843 h 9.04492 l 1.95117,-3.20898 c 1.07354,-1.7653 2.22928,-4.46529 2.56641,-6 l 0.61133,-2.79102 H 354.66211 382 l 1.75977,4.60547 c 2.65383,6.94904 3.4246,7.39453 12.77734,7.39453 9.80096,0 10.98747,-0.75751 9.15625,-5.86328 -4.88825,-13.62928 -41.88137,-103.74144 -42.83789,-104.34961 -0.73931,-0.47007 -2.91786,-0.71251 -5.43945,-0.76172 z m -2.3086,28.99219 c 0.30754,0.009 4.83359,11.31302 10.0586,25.11914 5.22497,13.80613 9.65067,25.49999 9.83398,25.98438 0.18523,0.48945 -8.58932,0.8789 -19.75,0.8789 -11.04582,0 -20.09413,-0.3375 -20.10547,-0.75 -0.039,-1.37544 19.39483,-51.25132 19.96289,-51.23242 z m -105.9043,19.58789 c -0.0194,0.009 -0.0372,0.0181 -0.0566,0.0274 0.10403,0.0555 0.22067,0.11816 0.31836,0.16992 -0.0876,-0.0651 -0.17293,-0.13389 -0.26172,-0.19727 z m 34.65626,58.01953 c -0.35255,0.14701 -1.20893,0.56058 -1.43555,0.64063 0.52475,-0.23977 1.10748,-0.51415 1.43555,-0.64063 z m 384.49609,33.37696 c -13.40209,0 -19.47853,6.10561 -24.60156,24.72265 -10.2731,37.33251 -10.90928,39.32529 -13.3086,41.72461 -1.48199,1.48199 -3.86198,2.56052 -6.05664,2.7461 -3.48601,0.29457 -3.68021,0.51955 -5.40429,6.30468 -1.69569,5.68986 -1.69779,6.07 -0.0527,7.32813 1.16924,0.89454 3.92026,1.2095 8.44141,0.96875 5.5014,-0.2928 7.4771,-0.89751 10.98828,-3.36524 6.21415,-4.36747 9.05195,-10.84468 16.30078,-37.1875 3.49636,-12.70616 6.82338,-23.97152 7.39258,-25.03515 1.09515,-2.04628 4.95982,-3.91937 9.10547,-4.41211 2.08399,-0.24767 2.72229,-1.15086 3.8789,-5.48828 2.02882,-7.608 1.46722,-8.30664 -6.68359,-8.30664 z m -547.18945,0.85156 v 41.16406 41.16406 l 19.75,-0.33984 19.75,-0.3418 6.72265,-3.18359 c 32.16246,-15.23603 32.6626,-59.03046 0.85156,-74.59766 l -6.57421,-3.21875 -20.25,-0.32226 z m 227,0 v 41.16406 41.16406 l 19.75,-0.39062 c 17.73824,-0.35097 20.31023,-0.62172 25.25,-2.66406 33.3787,-13.80057 34.75154,-60.03282 2.24023,-75.4336 l -6.74023,-3.19336 -20.25,-0.32226 z m 230.69921,0.0625 -6.59961,0.29297 -6.5996,0.29101 -15.70704,39 c -8.63871,21.44999 -15.72732,39.80836 -15.75,40.79493 -0.0383,1.58846 0.77468,1.76003 7.10157,1.5 7.49949,-0.30838 7.88243,-0.5421 9.83203,-6.04297 l 0.97461,-2.75196 h 20.30469 20.30664 l 1.46875,4.25 1.46875,4.25 6.90039,0.30079 c 3.79547,0.16446 7.31219,-0.11298 7.81445,-0.61524 0.55098,-0.55098 -5.51808,-16.84931 -15.30078,-41.08984 z m -371.69921,0.084 v 41.00196 40.99804 h 30 30 v -7 -7 h -22.5 -22.5 v -6.47461 -6.47656 l 17.25,-0.27344 17.25,-0.27539 0.29882,-6.25 0.29688,-6.25 h -17.54688 -17.54882 v -13.98047 -13.98046 l 21.75,-0.26954 21.75,-0.26953 0.29492,-6.74804 0.29687,-6.75196 h -29.54687 z m 227,0 v 41.00196 40.99804 h 29.88476 29.88281 l 0.60352,-2.25 c 0.84824,-3.16569 0.74695,-9.01674 -0.18164,-10.47851 -0.57052,-0.89817 -6.70471,-1.30271 -22.73633,-1.5 l -21.95312,-0.26953 -0.29688,-6.22657 -0.29687,-6.22656 17.29687,-0.27344 17.29688,-0.27539 0.29687,-6.22461 0.29883,-6.22656 -17.29883,-0.27344 -17.29687,-0.27539 -0.27735,-13.73047 -0.27929,-13.73046 21.77929,-0.26954 21.77735,-0.26953 0.29687,-6.74804 0.29492,-6.75196 h -29.54687 z m 73,0 v 41.00196 40.99804 h 7.5 7.5 v -40.99804 -41.00196 h -7.5 z m -192.5,0.5 -0.26172,39.49805 c -0.14408,21.72389 -0.0373,40.08203 0.23632,40.79492 0.35925,0.93627 2.51453,1.21437 7.76172,1.00196 l 7.26368,-0.29493 v -40.49804 -40.50196 h -7.5 z m -178.5,13.23829 10.33007,0.45898 c 12.29193,0.54667 17.61452,2.66183 23.48243,9.32812 4.52598,5.14179 6.19625,10.04077 6.16601,18.0918 -0.0386,10.32673 -5.9025,19.38336 -15.11328,23.3457 -5.32653,2.29138 -22.59549,4.07177 -24.11523,2.48633 -0.4125,-0.43033 -0.75,-12.69068 -0.75,-27.24609 z m 227,0.26367 h 7.45117 c 15.46708,0 24.35765,4.15956 29.91601,13.99804 2.64926,4.68923 3.0705,6.42156 3.0293,12.47266 -0.0279,4.09062 -0.70699,8.54943 -1.625,10.66797 -2.2478,5.18751 -8.18065,11.39711 -13.22266,13.83789 -4.53199,2.19383 -23.27968,4.06458 -24.79882,2.47461 -0.4125,-0.4317 -0.75,-12.6358 -0.75,-27.11914 z m 208.93554,7.73437 c 0.56871,-0.628 15.06446,35.58412 15.06446,37.63281 0,0.34765 -6.79859,0.63086 -15.10743,0.63086 -11.68815,0 -14.99214,-0.28289 -14.60156,-1.25 0.27761,-0.68749 3.5301,-9.12498 7.22852,-18.75 3.69842,-9.62498 7.03549,-17.84342 7.41601,-18.26367 z"
       transform="scale(0.26458333)"
       inkscape:connector-curvature="0"
       clip-path="url(#clipPath4764)" />
  </g>
  <g
     inkscape:groupmode="layer"
     id="layer6"
     inkscape:label="copuy"
     style="display:inline"
     transform="translate(-5.2998602,-110.52568)">
    <path
       inkscape:connector-curvature="0"
       id="path4253-3"
       style="fill:#f9f9f2;stroke-width:0.26458338"
       d="m 242.73437,188.26488 c -3.89117,-0.006 -7.64549,1.4898 -10.5296,4.37389 -6.48508,6.4851 -5.6205,17.42712 1.79473,22.71852 1.83547,1.30976 2.8772,1.8099 5.01519,2.40657 0.94307,0.26317 2.3373,0.35797 4.42041,0.30127 3.3708,-0.0918 5.6337,-0.68873 7.54062,-1.99006 l 1.05834,-0.72243 v -7.39542 -7.39593 l -2.22623,-0.0775 c -1.60247,-0.0558 -2.28703,0.0183 -2.44326,0.26458 -0.11938,0.18818 -0.21917,2.80948 -0.22117,5.82497 l -0.004,5.48287 -1.49862,0.43563 c -1.96118,0.57013 -5.04229,0.40756 -6.76082,-0.35708 -3.85817,-1.71664 -6.23461,-6.28095 -5.47512,-10.51512 0.5666,-3.15886 2.42643,-5.67344 5.32474,-7.20008 1.26272,-0.66517 1.65822,-0.73672 4.07572,-0.7369 2.55607,-2.1e-4 2.76258,0.0429 4.54132,0.95549 1.02481,0.52578 1.97196,0.88294 2.10478,0.79375 0.13282,-0.0892 0.75141,-0.91902 1.37511,-1.84433 1.41117,-2.0936 1.28904,-2.50148 -1.09812,-3.66541 -2.27538,-1.10943 -4.65919,-1.65367 -6.99389,-1.65726 z m 25.88369,0.22479 c -5.02569,-0.0132 -10.06219,0.0995 -10.31359,0.35089 -0.47061,0.47058 -0.45746,28.68503 0.0134,28.8773 0.1819,0.0743 4.97417,0.11417 10.64948,0.0884 l 10.31875,-0.047 0.076,-2.44739 0.076,-2.4474 h -7.94732 -7.94732 v -2.37608 -2.3766 l 6.15157,-0.0708 6.15156,-0.0713 v -2.11666 -2.11667 l -6.15725,-0.0708 -6.15724,-0.0708 0.0718,-4.95629 0.0718,-4.95577 7.67291,-0.13229 7.67292,-0.13229 0.078,-2.07584 c 0.0488,-1.30256 -0.0374,-2.21408 -0.23099,-2.4474 -0.20959,-0.25261 -5.2248,-0.39186 -10.25048,-0.40514 z m 41.89718,0.0217 c -0.75988,-0.0171 -1.52432,0.11045 -1.80764,0.39378 -0.21024,0.21023 -1.60593,3.45469 -3.1011,7.20989 -1.49516,3.75521 -2.79705,6.91792 -2.89285,7.028 -0.0958,0.11008 -1.46351,-2.92602 -3.03961,-6.74688 -1.57611,-3.82086 -3.04664,-7.15574 -3.2675,-7.4104 -0.48242,-0.55624 -2.89985,-0.64658 -3.54035,-0.13229 -0.22654,0.1819 -2.89004,6.68064 -5.9185,14.44149 -4.4937,11.51577 -5.43646,14.15453 -5.12837,14.34952 v 5.3e-4 c 0.50245,0.31779 4.12284,0.31389 4.71909,-0.005 0.30723,-0.16442 1.78811,-3.74649 4.26692,-10.32082 2.08802,-5.53785 3.8774,-9.97832 3.9765,-9.86813 0.0991,0.11018 1.40302,3.23608 2.8975,6.94686 1.49447,3.71078 2.90178,6.8957 3.12694,7.0776 0.47667,0.38508 2.37317,0.43798 3.28456,0.0915 0.5234,-0.19899 1.09289,-1.40769 3.37447,-7.15925 1.50974,-3.80585 2.8137,-6.96173 2.89749,-7.01353 0.0838,-0.0518 1.81745,4.32693 3.85248,9.73068 2.03502,5.40374 3.9084,10.03694 4.16306,10.29601 0.62607,0.63696 4.45168,0.68785 4.96765,0.0661 0.28076,-0.3383 -0.56643,-2.67727 -5.15007,-14.22135 -3.01724,-7.59907 -5.67268,-14.02458 -5.90093,-14.27924 -0.265,-0.29568 -1.01986,-0.45779 -1.77974,-0.4749 z m -159.02853,0.001 c -0.65852,0.0134 -1.27304,0.13615 -1.51464,0.37775 -0.20207,0.20207 -1.59852,3.44653 -3.10317,7.2099 -1.50466,3.76338 -2.81173,6.93182 -2.90473,7.0404 -0.093,0.10858 -1.4593,-2.92751 -3.03651,-6.74688 -1.57721,-3.81936 -3.04882,-7.15315 -3.27008,-7.40782 -0.48324,-0.55618 -2.90249,-0.64664 -3.53829,-0.13229 -0.22485,0.1819 -2.88909,6.68061 -5.92005,14.44098 -4.50672,11.53891 -5.4406,14.15133 -5.13147,14.349 0.50466,0.31955 4.12425,0.31595 4.72323,-0.005 0.31038,-0.16612 1.7773,-3.71341 4.26795,-10.31979 2.08731,-5.53652 3.87865,-9.97666 3.98064,-9.86709 0.10199,0.10957 1.4037,3.23505 2.89285,6.94582 1.48915,3.71079 2.89321,6.89571 3.12022,7.07761 0.22701,0.1819 0.91826,0.33073 1.53582,0.33073 2.25793,0 2.14056,0.16917 5.13251,-7.39955 1.50334,-3.80303 2.80438,-6.95857 2.89077,-7.01197 0.0864,-0.0534 1.821,4.32415 3.85507,9.72808 2.03406,5.40393 3.90684,10.03757 4.1615,10.29705 0.62617,0.63807 4.45132,0.68942 4.96817,0.0667 0.28136,-0.33902 -0.56212,-2.66864 -5.14749,-14.22135 -3.01601,-7.59875 -5.6712,-14.02457 -5.90093,-14.27923 -0.29482,-0.32682 -1.21471,-0.49059 -2.06137,-0.47336 z m 60.7937,0.0171 c -1.11195,-0.0217 -2.47662,0.0991 -2.75332,0.32402 -0.40009,0.32519 -6.42739,15.18165 -9.58442,23.36653 -0.11175,0.60589 -0.28992,1.14764 -0.57878,1.50637 -0.8353,2.19688 -1.37124,3.69073 -1.33119,3.79512 0.10717,0.27926 0.72942,0.37 2.53577,0.37 h 2.39313 l 0.51625,-0.84905 c 0.28404,-0.46706 0.58983,-1.18144 0.67903,-1.5875 l 0.16174,-0.73845 h 7.23315 7.23316 l 0.4656,1.21853 c 0.70216,1.8386 0.90609,1.95647 3.38067,1.95647 2.59317,0 2.9071,-0.20043 2.42259,-1.55133 -1.29335,-3.60608 -11.08111,-27.44826 -11.33419,-27.60917 -0.19561,-0.12437 -0.77202,-0.18852 -1.43919,-0.20154 z m -0.61081,7.67085 c 0.0814,0.002 1.27888,2.99324 2.66133,6.64611 1.38244,3.65287 2.55341,6.74687 2.60191,6.87503 0.049,0.1295 -2.27259,0.23255 -5.22552,0.23255 -2.92254,0 -5.31657,-0.0893 -5.31957,-0.19844 -0.0103,-0.36392 5.13155,-13.56025 5.28185,-13.55525 z m -28.02052,5.18263 c -0.005,0.002 -0.01,0.005 -0.015,0.007 0.0275,0.0147 0.0584,0.0313 0.0842,0.045 -0.0232,-0.0172 -0.0457,-0.0354 -0.0693,-0.0522 z m 9.16947,15.351 c -0.0933,0.0389 -0.31986,0.14832 -0.37982,0.1695 0.13884,-0.0634 0.29302,-0.13603 0.37982,-0.1695 z m 101.73126,8.83099 c -3.54597,0 -5.1537,1.61544 -6.50917,6.5412 -2.71809,9.87756 -2.88641,10.40482 -3.52123,11.03964 -0.39211,0.39211 -1.02181,0.67747 -1.60249,0.72657 -0.92234,0.0779 -0.97372,0.13747 -1.42988,1.66811 -0.44865,1.50545 -0.44921,1.60603 -0.0139,1.93891 0.30936,0.23668 1.03723,0.32001 2.23345,0.25631 1.45558,-0.0775 1.97832,-0.23747 2.90732,-0.89039 1.64416,-1.15556 2.39499,-2.86932 4.31291,-9.83919 0.92508,-3.36184 1.80536,-6.34246 1.95596,-6.62388 0.28975,-0.54141 1.31228,-1.037 2.40915,-1.16737 0.55139,-0.0655 0.72027,-0.3045 1.02629,-1.45211 0.5368,-2.01295 0.38821,-2.1978 -1.76836,-2.1978 z m -144.77721,0.22531 v 10.89132 10.89133 l 5.22552,-0.0899 5.22552,-0.0904 1.7787,-0.84233 c 8.50965,-4.0312 8.64198,-15.61847 0.22531,-19.73729 l -1.73942,-0.85163 -5.35782,-0.0853 z m 60.06042,0 v 10.89132 10.89133 l 5.22552,-0.10335 c 4.69324,-0.0929 5.37375,-0.1645 6.68073,-0.70487 8.83144,-3.6514 9.19467,-15.88368 0.59273,-19.95847 l -1.78336,-0.84491 -5.35781,-0.0853 z m 61.03916,0.0165 -1.74615,0.0775 -1.74614,0.077 -4.15582,10.31875 c -2.28566,5.67531 -4.16119,10.53263 -4.16719,10.79366 -0.0101,0.42028 0.20497,0.46567 1.87896,0.39687 1.98424,-0.0816 2.08556,-0.14343 2.60139,-1.59887 l 0.25787,-0.72812 h 5.37228 5.3728 l 0.3886,1.12448 0.38861,1.12448 1.82573,0.0796 c 1.00422,0.0435 1.93468,-0.0299 2.06757,-0.16278 0.14578,-0.14578 -1.45999,-4.45805 -4.04833,-10.87169 z m -98.34541,0.0222 v 10.84844 10.8474 h 7.9375 7.9375 v -1.85209 -1.85208 h -5.95313 -5.95312 v -1.71308 -1.71359 l 4.56406,-0.0724 4.56406,-0.0729 0.0791,-1.65364 0.0786,-1.65365 h -4.64261 -4.64313 v -3.699 -3.69899 l 5.75469,-0.0713 5.75469,-0.0713 0.078,-1.78542 0.0786,-1.78646 h -7.81761 z m 60.06041,0 v 10.84844 10.8474 h 7.90701 7.90649 l 0.15969,-0.59532 c 0.22443,-0.83759 0.19763,-2.38568 -0.0481,-2.77244 -0.15095,-0.23764 -1.77396,-0.34467 -6.01566,-0.39687 l -5.80843,-0.0713 -0.0786,-1.64745 -0.0785,-1.64744 4.57646,-0.0724 4.57647,-0.0729 0.0785,-1.64693 0.0791,-1.64744 -4.57698,-0.0724 -4.57647,-0.0729 -0.0734,-3.63286 -0.0739,-3.63285 5.76243,-0.0713 5.76193,-0.0713 0.0785,-1.78542 0.078,-1.78645 h -7.8176 z m 19.31459,0 v 10.84844 10.8474 h 1.98437 1.98438 v -10.8474 -10.84844 h -1.98438 z m -50.93229,0.13229 -0.0693,10.45053 c -0.0381,5.74778 -0.01,10.60504 0.0625,10.79365 0.095,0.24773 0.6653,0.32131 2.05362,0.26511 l 1.92185,-0.078 v -10.71511 -10.71615 h -1.98438 z m -47.22813,3.50263 2.73317,0.12144 c 3.25224,0.14464 4.6605,0.70428 6.21306,2.46807 1.19749,1.36043 1.63942,2.65662 1.63142,4.78679 -0.0102,2.73228 -1.5617,5.12851 -3.99872,6.17688 -1.40931,0.60626 -5.97839,1.07732 -6.38049,0.65784 -0.10914,-0.11386 -0.19844,-3.35774 -0.19844,-7.20886 z m 60.06042,0.0698 h 1.97145 c 4.09233,0 6.44463,1.10055 7.91528,3.70365 0.70095,1.24069 0.8124,1.69904 0.8015,3.30006 -0.007,1.08231 -0.18706,2.26204 -0.42995,2.82257 -0.59473,1.37252 -2.16446,3.01548 -3.49849,3.66127 -1.19909,0.58045 -6.15942,1.07542 -6.56135,0.65474 -0.10915,-0.11422 -0.19844,-3.34322 -0.19844,-7.17527 z m 55.28086,2.04639 c 0.15047,-0.16616 3.9858,9.41496 3.9858,9.95701 0,0.092 -1.79879,0.16692 -3.99717,0.16692 -3.09249,0 -3.96667,-0.0748 -3.86333,-0.33073 0.0734,-0.1819 0.934,-2.41432 1.91254,-4.96094 0.97854,-2.54661 1.86148,-4.72107 1.96216,-4.83226 z"
       clip-path="url(#clipPath4731)"
       transform="matrix(1.3892765,0,0,1.3892765,10.71149,-194.01511)" />
    <path
       inkscape:connector-curvature="0"
       style="display:inline;fill:#0fabf1;stroke-width:0.21935177"
       d="m 181.2848,188.02305 a 15.205841,15.205841 0 0 0 -15.20578,15.20578 15.205841,15.205841 0 0 0 15.20578,15.20618 15.205841,15.205841 0 0 0 15.20578,-15.20618 15.205841,15.205841 0 0 0 -15.20578,-15.20578 z m 0.0279,12.85455 a 2.5358906,2.485675 0 0 1 2.53551,2.4858 2.5358906,2.485675 0 0 1 -2.53551,2.48539 2.5358906,2.485675 0 0 1 -2.53591,-2.48539 2.5358906,2.485675 0 0 1 2.53591,-2.4858 z"
       id="path3899-6"
       clip-path="url(#clipPath4727)"
       transform="matrix(1.3892765,0,0,1.3892765,10.71149,-194.01511)" />
  </g>
  <g
     inkscape:groupmode="layer"
     id="layer5"
     inkscape:label="Layer 2"
     style="display:inline"
     transform="translate(-5.2998602,-110.52568)">
    <path
       inkscape:connector-curvature="0"
       style="display:inline;fill:#0fabf1;stroke-width:0.21935177"
       d="M 63.570707,118.95864 A 15.205841,15.205841 0 0 0 48.36493,134.16442 15.205841,15.205841 0 0 0 63.570707,149.3706 15.205841,15.205841 0 0 0 78.776485,134.16442 15.205841,15.205841 0 0 0 63.570707,118.95864 Z m 0.02789,12.85455 a 2.5358906,2.485675 0 0 1 2.53551,2.4858 2.5358906,2.485675 0 0 1 -2.53551,2.48539 2.5358906,2.485675 0 0 1 -2.53591,-2.48539 2.5358906,2.485675 0 0 1 2.53591,-2.4858 z"
       id="path3899" />
  </g>
</svg>
