<?xml version="1.0" standalone="no"?><!-- Generator: Gravit.io --><svg xmlns="http://www.w3.org/2000/svg" xmlns:xlink="http://www.w3.org/1999/xlink" style="isolation:isolate" viewBox="0 0 180.984 180.563" width="180.984" height="180.563"><defs><clipPath id="_clipPath_v7MyfAwLtmU9htCMYlxcVOw1h0wtwlBG"><rect width="180.984" height="180.563"/></clipPath></defs><g clip-path="url(#_clipPath_v7MyfAwLtmU9htCMYlxcVOw1h0wtwlBG)"><g style="isolation:isolate">
<style>

  path {
    stroke: #F9F9F2;
    fill: #F9F9F2;
    fill-opacity: 0;
    stroke-width: 1px;
  }

 <!--  .nostroke {
  transition: 0.5s ease-out;
  stroke: none;
  } -->

  .finished {
  fill-opacity: 1;
  transition: 0.5s ease-out;
  stroke-width: 0
  }

<!--   ellipse {

  stroke: #c7bba4;
  stroke-width: 2px;
  fill:  #6ee981;
  fill-opacity: 0;
  transition: 3s;
  } -->

  .innerCircleFill {
    stroke: none !important;
    fill: #717171;
  }

  .outterCircleFill {
  fill-opacity: 1 !important;
  transition: 2s ease;
  transition-delay: 1s;
  stroke: none !important;
}

</style>
<path d=" M 62.813 31.625 L 62.813 75.875 L 66.563 72.125 L 66.813 35.375 L 62.813 31.625 Z " /><path d=" M 118.188 103.688 L 118.188 148.813 L 114.438 145.063 L 114.188 107.438 L 118.188 103.688 Z " /><path d=" M 66.688 24.875 L 66.688 16.813 L 77.688 6.313 L 94.063 22.688 L 90.563 26.313 L 87.016 22.75 L 89.438 20.266 L 86.781 17.703 L 81.578 22.906 L 90.578 31.906 L 99.609 22.875 L 77.563 0.828 L 62.703 15.688 L 62.703 20.813 L 66.688 24.875 Z " /><path d=" M 94.125 15.266 L 91.469 12.609 L 103.328 0.75 L 118.172 15.594 L 118.172 61.469 L 114.203 61.469 L 114.203 17.219 L 103.141 6.156 L 94.125 15.266 Z " /><path d=" M 120.063 26.953 L 125.359 21.656 L 140.859 21.656 L 140.859 45.031 L 135.859 45.031 L 135.859 39.938 L 139.313 39.938 L 139.313 36.094 L 131.734 36.094 L 131.734 49.188 L 144.797 49.188 L 144.797 17.875 L 123.703 17.875 L 119.969 21.609 L 120.063 26.953 Z " /><path d=" M 146.15 40 L 146.165 35.969 L 162.984 35.969 L 162.984 56.781 L 130.641 89.125 L 128.078 86.563 L 159.047 55.594 L 159.047 39.906 L 146.15 40 Z " /><path d=" M 156.125 66.406 L 163.859 66.406 L 174.672 77.219 L 158.172 93.719 L 154.641 90.188 L 158.141 86.688 L 160.625 89.063 L 163.563 86.125 L 158.234 80.906 L 148.953 90.188 L 158.141 99.375 L 180.203 77.313 L 165.516 62.625 L 159.75 62.625 L 156.125 66.406 Z " /><path d=" M 165.859 94.063 L 168.578 91.344 L 180.234 103 L 165.484 117.75 L 119.594 117.75 L 119.594 113.844 L 163.641 113.844 L 174.578 102.906 L 165.859 94.063 Z " /><path d=" M 153.875 119.641 L 159.344 119.641 L 163.141 123.438 L 163.141 144.375 L 131.766 144.375 L 131.766 131.344 L 144.828 131.344 L 144.828 138.938 L 140.859 138.938 L 140.859 135.219 L 135.641 135.219 L 135.641 140.438 L 159.078 140.438 L 159.078 124.938 L 153.875 119.641 Z " /><path d=" M 140.922 145.75 L 144.797 145.75 L 144.797 162.594 L 123.734 162.594 L 91.172 130.031 L 94.047 127.156 L 125.422 158.531 L 140.922 158.531 L 140.922 145.75 Z " /><path d=" M 114.234 155.625 L 118.297 159.688 L 118.297 164.813 L 103.297 179.813 L 81.109 157.625 L 90.484 148.25 L 99.859 157.625 L 94.484 163 L 91.672 160.188 L 94.141 157.719 L 90.391 153.969 L 86.797 157.563 L 103.328 174.094 L 114.203 163.219 L 114.234 155.625 Z " /><path d=" M 86.641 165.063 L 89.453 167.875 L 77.672 179.656 L 62.672 164.656 L 62.672 118.906 L 66.828 118.906 L 66.828 163.25 L 77.672 174.094 L 86.641 165.063 Z " /><path d=" M 60.969 153.313 L 60.969 158.75 L 57.375 162.344 L 36.313 162.344 L 36.313 131.375 L 49.25 131.375 L 49.25 144.375 L 41.75 144.375 L 41.75 140.406 L 45.063 140.406 L 45.063 135.25 L 40.031 135.25 L 40.031 158.625 L 55.5 158.625 L 60.969 153.313 Z " /><path d=" M 34.938 140.531 L 34.938 144.281 L 17.938 144.281 L 17.938 123.469 L 50.188 91.219 L 52.969 94 L 21.813 125.156 L 21.813 140.344 L 34.938 140.531 Z " /><path d=" M 24.875 113.969 L 21.063 117.844 L 15.594 117.844 L 0.844 103.094 L 22.813 81.125 L 31.969 90.281 L 22.875 99.375 L 17.563 94.063 L 20.281 91.344 L 22.875 93.938 L 26.594 90.219 L 22.969 86.594 L 6.406 103.156 L 17.156 113.906 L 24.875 113.969 Z " /><path d=" M 15.531 86.406 L 12.688 89.25 L 0.75 77.313 L 15.406 62.656 L 61.719 62.656 L 61.719 66.469 L 17.281 66.469 L 6.469 77.281 L 15.531 86.406 Z " /><path d=" M 27.344 60.75 L 21.813 60.75 L 17.938 56.875 L 17.938 36 L 49.25 36 L 49.25 48.813 L 36.281 48.813 L 36.281 41.5 L 40.063 41.5 L 40.063 45.125 L 45.188 45.125 L 45.188 39.75 L 21.875 39.75 L 21.875 55.344 L 27.344 60.75 Z " /><path d=" M 40.063 34.563 L 36.188 34.563 L 36.188 17.875 L 57.188 17.875 L 89.594 50.281 L 86.844 53.031 L 55.563 21.75 L 40 21.75 L 40.063 34.563 Z " /><path d=" M 68.438 151.063 L 68.438 145.563 L 94.75 119.344 L 100.313 119.344 L 68.438 151.063 Z " /><path d=" M 107.625 112.406 L 101.875 112.406 L 123.063 91.219 L 125.688 93.844 L 107.625 112.406 Z " /><path d=" M 119.625 85.719 L 119.625 80.281 L 151.469 112.125 L 146.031 112.125 L 119.625 85.719 Z " /><path d=" M 112.844 73.531 L 112.844 78.969 L 91.406 57.531 L 94.219 54.719 L 112.844 73.531 Z " /><path d=" M 80.656 60.906 L 85.969 60.906 L 112.438 34.438 L 112.438 29.375 L 80.656 60.906 Z " /><path d=" M 67.844 62.531 L 67.844 66.531 L 98.344 66.531 L 94.406 62.594 L 67.844 62.531 Z " /><path d=" M 104.344 62.719 L 108.156 66.531 L 145.563 66.531 L 149.375 62.719 L 104.344 62.719 Z " /><path d=" M 89.719 122.844 L 86.844 125.719 L 67.969 106.844 L 67.969 101.281 L 89.719 122.844 Z " /><path d=" M 35.563 113.906 L 31.625 117.844 L 76.906 117.844 L 73.031 113.969 L 35.563 113.906 Z " /><path d=" M 82.844 113.906 L 86.844 117.906 L 112.781 117.906 L 112.781 113.969 L 82.844 113.906 Z " /><path d=" M 29.375 68.188 L 34.813 68.188 L 61.281 94.656 L 61.281 100.219 L 29.375 68.188 Z " /><path d=" M 57.875 89.188 L 55.125 86.438 L 73.719 67.844 L 78.969 67.844 L 57.875 89.188 Z " /><path d=" M 66.719 112.719 L 62.844 112.719 L 62.844 86.875 L 66.594 83.125 L 66.719 112.719 Z " /><path d=" M 118.344 94.281 L 114.281 98.344 L 114.281 67.594 L 118.281 67.594 L 118.344 94.281 Z " /><ellipse style="stroke:none;fill:#6ee981;fill-opacity:0;" id="outterCircle" cx="90.90595143312095" cy="90.40624999999999" rx="19.655951433121047" ry="19.71875" /><circle style="stroke:none !important; fill:#717171;" id="innerCircle" cx="90.89648437500006" cy="90.50195312500001" r="2.392578124999986" /></g></g>

</svg>
