<?xml version="1.0" encoding="UTF-8" standalone="no"?>
<!-- Created with Inkscape (http://www.inkscape.org/) -->

<svg
   width="258.49792mm"
   height="43.143764mm"
   viewBox="0 0 258.49792 43.143764"
>
  <g
     inkscape:label="Layer 1"
     inkscape:groupmode="layer"
     id="layer1"
     transform="translate(16.509578,-127.01656)">
    <path
       id="path3848"
       transform="matrix(0.26458333,0,0,0.26458333,-16.509578,127.01656)"
       style="fill:#000000;stroke-width:1.00000012"
       d="m 565.00195,-525.13672 -0.83398,0.83399 c 1.31095,0.70024 2.33171,1.52782 3.46289,2.65625 0.0334,0.0191 0.10454,0.0609 0.13476,0.0781 0.27171,0.15434 0.54142,0.31423 0.8125,0.4707 0.1246,-0.0274 0.25988,-0.0499 0.38672,-0.0762 z m -212.43945,62.77149 c 0.0693,0.55676 0.12628,0.98541 0.18359,1.42578 0.0676,-0.4185 0.13252,-0.83033 0.20118,-1.25 -0.0937,-0.0729 -0.21426,-0.13516 -0.38477,-0.17578 z m -39.95508,403.718746 c 0.84293,0.164043 1.68585,0.332227 2.5293,0.486328 1.86711,1.47e-4 3.73445,0.0018 5.60156,0.002 0.003,-0.162796 0.002,-0.325529 0.004,-0.488281 z m 617.4082,0 c -0.0294,0.0291 -0.0584,0.05889 -0.0879,0.08789 0.039,-0.02931 0.0781,-0.05859 0.11719,-0.08789 z M 583.5,17.158203 c -20.00247,0.08058 -36.27991,6.881475 -50.58984,21.136719 -9.52177,9.485367 -14.64843,17.659734 -18.74219,29.890625 -2.27868,6.807761 -2.56704,9.292365 -2.58594,22.167969 -0.0186,13.293844 0.21005,15.165444 2.75586,22.500004 8.73683,25.17112 28.54854,43.1489 54.01953,49.01953 7.86754,1.81334 28.79448,1.22709 37.0332,-1.03711 7.99057,-2.19598 17.84128,-6.96262 21.55274,-10.42969 L 630,147.55078 v -33.66406 c 0,-21.293486 -0.38039,-34.37614 -1.03516,-35.599611 -0.9219,-1.722595 -2.17684,-1.933593 -11.46484,-1.933593 -9.28804,0 -10.54298,0.211074 -11.46484,1.933593 C 605.39661,79.480268 605,90.329307 605,106.60352 v 26.38476 l -5.75,1.83789 c -23.3709,7.47319 -46.96682,-2.42928 -57.2793,-24.03711 -13.45262,-28.187362 3.76541,-61.825042 34.56641,-67.529294 10.31894,-1.911043 23.94479,0.837716 32.625,6.582031 2.08683,1.381001 4.62265,2.511719 5.63477,2.511719 1.18578,0 3.92489,-3.038402 7.70117,-8.541016 7.74126,-11.280151 7.4753,-12.207782 -5.33594,-18.648438 C 605.38215,19.241849 596.4021,17.106046 583.5,17.158203 Z m -150.86133,1.046875 c -4.46471,-0.0059 -8.99676,0.625606 -10.54101,1.898438 C 419.99791,21.834199 366,154.9772 366,158.42383 c 0,0.87699 0.2998,1.89233 0.66602,2.25976 0.93194,0.932 22.56417,0.80911 24.05273,-0.13671 0.66996,-0.42569 2.47625,-3.90794 4.01563,-7.73633 l 2.79882,-6.95899 34.64063,-0.26367 34.63867,-0.26172 2.75781,7.02539 c 1.51605,3.86412 3.3098,7.48539 3.98633,8.04688 0.72423,0.60109 5.85692,0.90338 12.48047,0.73633 8.68823,-0.21914 11.46516,-0.62482 12.19336,-1.78321 0.68383,-1.08778 -6.56187,-20.18081 -26.36524,-69.472654 -15.01946,-37.384512 -28.1099,-68.772009 -29.08789,-69.75 -1.27666,-1.275817 -5.67396,-1.91796 -10.13867,-1.923828 z m 483.19141,0.06055 c -0.96557,0.0041 -2.0495,0.08789 -3.33985,0.08789 -4.19297,0 -5.91386,0.496148 -7.80468,2.25 -1.61488,1.498015 -6.8965,13.522995 -15.80469,35.982422 -7.35901,18.553696 -13.63054,33.74244 -13.93555,33.75 -0.30497,0.0088 -6.82535,-15.169919 -14.49023,-33.732422 -7.89509,-19.120063 -14.94362,-34.772821 -16.25977,-36.109375 -2.08993,-2.122205 -3.01698,-2.320246 -9.24023,-1.96875 -3.80481,0.215017 -7.41073,0.88338 -8.01367,1.486328 -0.60295,0.602948 -12.32074,29.839099 -26.03907,64.96875 -32.44123,83.074961 -29.20653,74.093521 -27.125,75.306641 2.55122,1.48705 21.46743,1.33967 23.54493,-0.18359 0.94839,-0.69536 9.88101,-22.92708 20.13085,-50.10547 10.13371,-26.870453 18.58548,-49.017114 18.78126,-49.212894 0.19581,-0.195855 6.36072,14.589163 13.70117,32.855469 7.34041,18.266305 13.96841,34.225395 14.72851,35.462895 1.2545,2.04249 2.1491,2.25 9.70313,2.25 6.67442,0 8.63819,-0.34981 9.91601,-1.76172 0.87621,-0.9682 7.65317,-17.05574 15.06055,-35.750003 11.69163,-29.506545 13.59406,-33.658524 14.41406,-31.488281 0.5195,1.37503 8.7269,23.199977 18.24024,48.500004 9.51329,25.29996 18.20952,47.0125 19.32422,48.25 1.8483,2.05194 2.91736,2.25 12.16015,2.25 7.13518,0 10.70495,-0.41703 12.06055,-1.40821 2.39369,-1.75033 5.24654,6.17251 -26.78125,-74.404294 C 923.54115,22.089987 922.58908,18.237199 915.83008,18.265625 Z m -190.25391,0.07422 c -28.0369,-0.06004 -64.33401,0.348481 -65.64258,1.048828 C 658.04957,20.39692 658,22.236758 658,90.220703 c 0,38.388967 0.2994,70.098227 0.66602,70.464847 0.36665,0.36657 23.55564,0.66797 51.53125,0.66797 47.50216,0 50.91289,-0.1157 51.58398,-1.75 0.39507,-0.9625 0.71875,-6.15454 0.71875,-11.53711 0,-7.61099 -0.33345,-9.99696 -1.5,-10.73438 -0.87492,-0.55306 -17.02316,-0.95533 -38.75,-0.96289 L 685,136.35352 v -11 -11 h 28.80078 c 21.06667,0 29.12224,-0.32342 30,-1.20118 C 744.56145,112.39168 745,108.56013 745,102.6875 c 0,-8.136378 -0.23492,-9.389701 -1.93359,-10.298828 -1.20155,-0.643049 -12.56591,-1.035156 -30,-1.035156 H 685 V 67.365234 43.376953 l 37.25,-0.261719 37.25,-0.261718 0.28125,-11.626954 c 0.27439,-11.365715 0.22973,-11.638973 -2,-12.236328 -1.53337,-0.410796 -15.38294,-0.614369 -32.20508,-0.65039 z m -587.32031,0.0039 c -6.62231,0.154983 -7.34156,2.88747 -20.97656,36.669922 -7.7339,19.161751 -14.44771,34.627219 -14.91992,34.367187 -0.47226,-0.260107 -7.193577,-15.78514 -14.935552,-34.5 C 76.118921,27.553224 72.87033,20.609234 70.923828,19.617188 67.190868,17.714649 57.623627,18.0103 55.166016,20.103516 53.867975,21.209065 43.312952,47.01635 26.501953,90.185547 5.3185361,144.58274 0.1318302,158.80713 1.0683594,159.93555 c 1.7313638,2.08611 22.1866116,2.02026 24.2851566,-0.0781 1.64383,-1.64383 2.812291,-4.6117 23.740234,-60.253904 7.912551,-21.037493 14.645385,-38.25 14.960938,-38.25 0.315563,0 6.576223,14.848268 13.914062,32.998046 7.337828,18.149788 13.973521,33.899778 14.744141,34.999998 1.198422,1.71084 2.533043,2.00196 9.232419,2.00196 6.0475,0 8.27837,-0.39882 9.78907,-1.75 1.07608,-0.9625 7.70802,-16.37499 14.73632,-34.250004 7.02831,-17.874974 13.08942,-33.085695 13.47071,-33.800782 0.39151,-0.734248 8.69438,19.894031 19.07421,47.394536 10.68265,28.30269 19.21381,49.47259 20.3711,50.55078 2.76881,2.57949 21.56978,2.75639 24.09961,0.22656 0.89594,-0.8959 1.35794,-2.35845 1.02734,-3.25 -0.33061,-0.89159 -12.33162,-31.32108 -26.66992,-67.621094 -18.36072,-46.483503 -26.7934,-66.665358 -28.51367,-68.25 -1.90165,-1.751774 -3.63233,-2.25 -7.82031,-2.25 -1.24188,0 -2.30787,-0.03179 -3.25391,-0.0098 z m 294.16016,37.160156 c 0.0433,-0.0011 0.0826,0.01423 0.11523,0.04687 C 433.18195,56.201531 458,121.44401 458,122.50391 c 0,0.46665 -11.70001,0.84961 -26,0.84961 -14.3,0 -26,-0.16622 -26,-0.36914 0,-0.27837 17.54706,-46.032972 25.12695,-65.519536 0.44716,-1.149577 0.98613,-1.953118 1.28907,-1.960938 z" />
  </g>
  <g
     inkscape:groupmode="layer"
     id="layer4"
     inkscape:label="Layer 3"
     style="display:inline">
    <path
       style=" fill:blue;stroke-width:1.06010914"
       d="M 284.10547 16.337891 A 73.488587 73.488587 0 0 0 210.61719 89.826172 A 73.488587 73.488587 0 0 0 284.10547 163.31641 A 73.488587 73.488587 0 0 0 357.59375 89.826172 A 73.488587 73.488587 0 0 0 284.10547 16.337891 z M 284.24023 78.462891 A 12.255752 12.013064 0 0 1 296.49414 90.476562 A 12.255752 12.013064 0 0 1 284.24023 102.48828 A 12.255752 12.013064 0 0 1 271.98438 90.476562 A 12.255752 12.013064 0 0 1 284.24023 78.462891 z "
       id="path3899"
       transform="scale(0.26458333)" />
  </g>
  <g
     inkscape:groupmode="layer"
     id="layer3"
     inkscape:label="Layer 2"
     style="display:inline" />
</svg>
