<?xml version="1.0" encoding="UTF-8" standalone="no"?>
<!-- Created with Inkscape (http://www.inkscape.org/) -->

<svg
   xmlns:dc="http://purl.org/dc/elements/1.1/"
   xmlns:cc="http://creativecommons.org/ns#"
   xmlns:rdf="http://www.w3.org/1999/02/22-rdf-syntax-ns#"
   xmlns:svg="http://www.w3.org/2000/svg"
   xmlns="http://www.w3.org/2000/svg"
   xmlns:sodipodi="http://sodipodi.sourceforge.net/DTD/sodipodi-0.dtd"
   xmlns:inkscape="http://www.inkscape.org/namespaces/inkscape"
   width="89.15596mm"
   height="55.785099mm"
   viewBox="0 0 89.15596 55.785099"
   version="1.1"
   id="svg8"
   inkscape:version="0.92.3 (2405546, 2018-03-11)"
   sodipodi:docname="mobistro.svg">
  <defs
     id="defs2" />
  <sodipodi:namedview
     id="base"
     pagecolor="#ffffff"
     bordercolor="#666666"
     borderopacity="1.0"
     inkscape:pageopacity="0"
     inkscape:pageshadow="2"
     inkscape:zoom="7.9460938"
     inkscape:cx="207.07458"
     inkscape:cy="113.19348"
     inkscape:document-units="mm"
     inkscape:current-layer="layer1"
     showgrid="false"
     inkscape:window-width="3066"
     inkscape:window-height="1689"
     inkscape:window-x="134"
     inkscape:window-y="55"
     inkscape:window-maximized="1"
     fit-margin-top="0"
     fit-margin-left="0"
     fit-margin-right="0"
     fit-margin-bottom="0" />
  <metadata
     id="metadata5">
    <rdf:RDF>
      <cc:Work
         rdf:about="">
        <dc:format>image/svg+xml</dc:format>
        <dc:type
           rdf:resource="http://purl.org/dc/dcmitype/StillImage" />
        <dc:title></dc:title>
      </cc:Work>
    </rdf:RDF>
  </metadata>
  <g
     inkscape:groupmode="layer"
     id="layer2"
     inkscape:label="Layer 2"
     transform="translate(-53.654472,-106.17947)"
     style="display:inline">
    <g
       id="g1252"
       transform="translate(91.285743,106.17981)">
      <g
         transform="translate(-56.701067,-113.36111)"
         inkscape:label="Layer 2"
         id="layer2-3" />
      <g
         transform="translate(-56.701067,-113.36111)"
         id="layer1-5"
         inkscape:label="Layer 1">
        <path
           inkscape:connector-curvature="0"
           d="m 96.341551,113.36111 0.141595,1.03611 c 0.16909,1.23638 0.853596,2.56937 1.618506,3.15278 0.472279,0.36024 0.554487,0.52963 0.554487,1.13844 0,0.39323 -0.11349,1.08896 -0.252179,1.54615 -0.138692,0.45718 -0.252733,0.86481 -0.253733,0.90641 -0.0011,0.0416 0.271992,-0.18702 0.606682,-0.50798 l 0.608232,-0.58343 -0.06821,-1.35444 c -0.05045,-1.00043 -0.185782,-1.61083 -0.517281,-2.33422 -0.24688,-0.53874 -0.367935,-0.92968 -0.269235,-0.86868 0.09871,0.061 0.40069,0.57791 0.670761,1.14877 l 0.490924,1.03818 v -0.72503 c 2.65e-4,-1.69481 -1.525437,-3.58954 -2.892846,-3.59254 z m 8.657359,3.54449 c -0.65776,0.003 -1.32739,0.0994 -1.93632,0.2961 -0.8094,0.2614 -2.54351,1.56686 -2.54351,1.91462 0,0.0747 0.66664,-0.0783 1.48156,-0.33952 0.81492,-0.26117 1.86288,-0.52146 2.32854,-0.57826 0.70919,-0.0866 0.59281,-0.0243 -0.71675,0.38344 -2.74655,0.85517 -3.635345,1.39721 -5.859594,3.57188 l -2.004012,1.95905 0.818554,0.71675 c 0.45035,0.39405 0.872093,0.71785 0.936895,0.71985 0.06476,0.002 0.397172,-0.52881 0.738971,-1.17925 0.341802,-0.65045 1.054121,-1.69789 1.582851,-2.32802 l 0.961185,-1.14567 1.77095,-0.10387 c 1.10467,-0.0646 2.02537,-0.21465 2.44791,-0.39894 0.76498,-0.33364 2.55263,-1.56885 3.01532,-2.0836 0.29753,-0.33102 0.29325,-0.34974 -0.16898,-0.67179 -0.69407,-0.48358 -1.75731,-0.7379 -2.85357,-0.73277 z m -48.294214,11.78584 c -5.3e-4,0.0942 -2.07e-4,0.18189 -0.0031,0.29404 -4.8e-5,0.002 -5.29e-4,0.009 -5.29e-4,0.0114 0.05405,0.0321 0.114017,0.0718 0.168981,0.10542 -0.0504,-0.12453 -0.116229,-0.28957 -0.165364,-0.41083 z"
           style="fill:#717171;stroke-width:0.16933334"
           id="path124-6" />
      </g>
    </g>
  </g>
  <g
     inkscape:label="Layer 1"
     inkscape:groupmode="layer"
     id="layer1"
     transform="translate(-53.654472,-106.17947)"
     style="display:inline">
    <path
       id="path124"
       transform="matrix(0.26458333,0,0,0.26458333,53.654472,106.17947)"
       style="fill:#717171;stroke-width:0.64000005"
       d="m 56.052734,35.839844 c -5.324511,0 -7.448487,0.230904 -7.976562,0.867187 C 47.102354,37.880386 0,158.65305 0,159.97656 c 0,0.57589 0.35246171,1.39933 0.78320312,1.83008 0.56770398,0.56753 3.59846468,0.73441 11.01562488,0.60742 l 10.232422,-0.17383 1.304688,-1.97656 c 0.717535,-1.08657 8.504688,-21.14577 17.304687,-44.57812 8.800003,-23.432318 16.127411,-42.480065 16.283203,-42.328128 0.155796,0.152012 5.847359,14.010746 12.648438,30.796878 6.801078,16.78616 12.663337,30.81691 13.027343,31.18164 0.364014,0.36476 3.545374,0.76306 7.070313,0.88476 7.223516,0.24934 9.760544,-0.4442 11.085938,-3.03125 0.47053,-0.91842 5.96928,-14.62875 12.21875,-30.46875 6.24946,-15.839997 11.53851,-28.994686 11.75391,-29.232419 0.2154,-0.23777 7.70571,18.989946 16.64648,42.728519 11.62783,30.87295 16.71376,43.61803 17.86328,44.76758 1.59549,1.59533 1.67889,1.60625 11.56055,1.43164 9.87482,-0.17435 9.96011,-0.18799 10.83594,-1.7754 0.82737,-1.49964 -0.6053,-5.35457 -22.86524,-61.441401 C 145.7073,66.287244 134.48917,38.639753 133.8418,37.759766 c -1.12252,-1.52572 -1.52086,-1.607707 -8.60157,-1.779297 -7.20447,-0.174728 -7.45452,-0.134562 -8.42187,1.341797 -0.5483,0.836825 -6.49595,15.173176 -13.21875,31.859375 C 96.876813,85.867877 91.305478,99.598115 91.220703,99.693359 91.135928,99.788528 85.337468,86.014454 78.333984,69.083984 71.330505,52.153515 65.084793,37.747037 64.455078,37.070312 63.455488,35.995982 62.388254,35.839844 56.052734,35.839844 Z M 266.24023,191.22266 v 9.66796 h -0.002 c 0,8.16692 0.14997,9.66797 0.96094,9.66797 0.72529,0 0.95898,-0.7834 0.95898,-3.20117 v -3.19922 h 3.0918 c 3.0822,0 3.09316,0.008 4.58789,3.19922 0.97153,2.07424 1.89878,3.20117 2.63477,3.20117 1.04171,0 1.01149,-0.27909 -0.35938,-3.3789 l -1.49219,-3.37696 1.5293,-1.77734 c 2.0778,-2.41395 2.07365,-6.12313 -0.008,-8.54297 -1.40636,-1.63498 -1.98254,-1.80838 -6.7207,-2.02344 z m -143.35937,0.002 v 9.66797 c 0,8.16691 0.14802,9.66797 0.95898,9.66797 0.72533,0 0.96094,-0.78341 0.96094,-3.20117 v -3.19922 h 3.08984 c 3.08222,0 3.09512,0.008 4.58985,3.19922 0.97152,2.07424 1.89881,3.20117 2.63476,3.20117 1.04189,0 1.01152,-0.27909 -0.35937,-3.37891 l -1.49414,-3.37695 1.5293,-1.77735 c 2.07627,-2.41394 2.07168,-6.12508 -0.01,-8.54492 -1.40636,-1.63498 -1.98062,-1.80838 -6.71875,-2.02344 z m 80.63867,0.006 v 9.66406 9.66406 h 5.41016 c 6.05302,0 8.19723,-0.69128 9.24023,-2.98047 1.03967,-2.28177 0.87765,-3.67408 -0.65234,-5.61914 -1.01189,-1.28624 -1.17709,-1.91857 -0.64063,-2.45507 0.39731,-0.39727 0.72266,-1.77166 0.72266,-3.05469 0,-3.75821 -1.63123,-4.72882 -8.38672,-4.99414 z m -33.72461,0.12695 c -0.64935,0 -0.83398,2.13447 -0.83398,9.60156 0,8.10668 0.14831,9.59961 0.95898,9.59961 0.80247,0 0.96094,-1.32285 0.96094,-8.05468 0,-4.42935 0.24416,-7.95701 0.54297,-7.83985 0.29882,0.11736 2.89058,1.65293 5.75976,3.41211 l 5.2168,3.19922 v 4.64063 c 0,4.23518 0.11332,4.64257 1.29688,4.64257 1.2523,0 1.28997,-0.32637 1.11914,-9.43945 -0.14797,-7.88572 -0.33478,-9.44141 -1.13672,-9.44141 -0.70689,0 -1.00986,0.88733 -1.15235,3.36133 -0.10639,1.848 -0.33099,3.35938 -0.49804,3.35938 -0.16694,0 -2.80009,-1.58355 -5.85157,-3.51953 -3.05149,-1.93603 -5.92363,-3.52149 -6.38281,-3.52149 z m 74.37696,0 c -4.53351,0 -5.69073,1.45661 -8.01563,10.0957 -1.53135,5.69042 -2.75746,7.18555 -5.89844,7.18555 -1.1534,0 -1.77734,0.33608 -1.77734,0.95899 0,0.69505 0.7138,0.96093 2.58984,0.96093 3.66055,0 5.17908,-1.90782 7.22657,-9.08007 1.86685,-6.53965 2.52464,-7.49735 5.58398,-8.12305 3.01198,-0.61603 3.21357,-1.99805 0.29102,-1.99805 z m 11.14062,0 c -7.01333,0 -7.70681,0.10452 -7.51367,1.1211 0.16025,0.84389 0.95982,1.16743 3.24609,1.31445 l 3.03516,0.19531 v 7.85742 c 0,4.32204 0.19107,8.05045 0.42578,8.28516 0.23467,0.23463 0.81191,0.42773 1.28125,0.42773 0.66739,0 0.85351,-1.81363 0.85351,-8.32031 v -8.32031 h 3.19922 c 2.77335,0 3.19922,-0.16997 3.19922,-1.2793 0,-1.20933 -0.42629,-1.28125 -7.72656,-1.28125 z m -228.681641,0.002 c -0.534553,0 -2.178072,3.12628 -4.121093,7.83984 l -3.232422,7.8418 -0.9375,-2.24024 c -0.515728,-1.23197 -1.949958,-4.68961 -3.1875,-7.68164 -1.301859,-3.14748 -2.676591,-5.52667 -3.261719,-5.64648 -1.634559,-0.33445 -1.830084,-0.91427 5.75,17.06445 0.50298,1.19297 1.259114,2.01686 1.710937,1.86719 0.795088,-0.26351 8.133951,-16.67942 8.15625,-18.24414 0.0063,-0.43983 -0.387935,-0.80078 -0.876953,-0.80078 z m 6.009766,0 v 9.62304 9.6211 l 6.828125,-0.18164 c 4.6392,-0.12344 6.909219,-0.43021 7.083984,-0.95704 0.186335,-0.56175 -1.38536,-0.82714 -5.707031,-0.96093 -5.954785,-0.18429 -5.966645,-0.18787 -6.166015,-1.91602 -0.199269,-1.72724 -0.187597,-1.73132 4.474609,-1.91992 3.852057,-0.15568 4.710555,-0.38533 4.886719,-1.30859 0.188311,-0.98695 -0.363892,-1.11915 -4.634766,-1.11915 h -4.845703 v -4.13476 -4.13477 l 5.591797,-0.18554 c 4.730555,-0.15644 5.625525,-0.35735 5.80664,-1.30469 0.19301,-1.00966 -0.453132,-1.12109 -6.552734,-1.12109 z m 38.398437,0 v 9.62304 9.6211 l 6.828126,-0.18164 c 4.6392,-0.12344 6.911172,-0.43021 7.085937,-0.95704 0.186334,-0.56175 -1.385361,-0.82714 -5.707031,-0.96093 -5.954786,-0.18429 -5.966646,-0.18787 -6.166016,-1.91602 -0.199268,-1.72724 -0.189553,-1.73132 4.472656,-1.91992 3.852057,-0.15568 4.710555,-0.38533 4.886719,-1.30859 0.188311,-0.98695 -0.361939,-1.11915 -4.632812,-1.11915 h -4.845703 v -4.13476 -4.13477 l 5.591796,-0.18554 c 4.730555,-0.15644 5.625526,-0.35735 5.806641,-1.30469 0.193013,-1.00966 -0.453132,-1.12109 -6.552734,-1.12109 z m 23.634766,0 c -7.013337,0 -7.708683,0.10451 -7.515625,1.12109 0.160256,0.84389 0.961773,1.16743 3.248047,1.31445 l 3.033203,0.19531 v 7.85743 c 0,4.32204 0.193064,8.05044 0.427735,8.28515 0.234663,0.23464 0.809958,0.42774 1.279296,0.42774 0.66734,0 0.853516,-1.81363 0.853516,-8.32032 v -8.32031 h 3.199219 c 2.773331,0 3.201171,-0.16997 3.201171,-1.2793 0,-1.20933 -0.42631,-1.28124 -7.726562,-1.28124 z m 62.197262,0.0332 c -0.90587,0.0554 -2.3126,2.67439 -4.86132,8.76562 -2.02518,4.84003 -3.82252,9.15964 -3.99415,9.59961 -0.18618,0.47724 0.20375,0.80078 0.9668,0.80078 0.83061,0 1.4189,-0.56061 1.67969,-1.59961 0.3881,-1.54635 0.58023,-1.60156 5.72656,-1.60156 5.05902,0 5.3621,0.0815 6.05469,1.60156 0.40095,0.87999 1.16758,1.59961 1.70312,1.59961 0.53555,0 0.97266,-0.10833 0.97266,-0.24023 0,-0.13183 -1.60852,-4.09262 -3.57617,-8.80078 -1.96766,-4.70816 -3.72618,-8.9194 -3.9082,-9.35938 -0.21409,-0.51755 -0.46172,-0.78408 -0.76368,-0.76562 z m -45.43945,0.002 c -0.90587,0.0554 -2.3126,2.67437 -4.86133,8.76563 -2.02517,4.83998 -3.82446,9.15959 -3.99609,9.59961 -0.18618,0.4772 0.2057,0.80078 0.96875,0.80078 0.83061,0 1.4189,-0.56257 1.67969,-1.60157 0.38809,-1.54631 0.58023,-1.5996 5.72656,-1.5996 5.05901,0 5.3621,0.0796 6.05469,1.5996 0.40095,0.87999 1.16757,1.60157 1.70312,1.60157 0.53555,0 0.97266,-0.10833 0.97266,-0.24024 0,-0.13187 -1.61048,-4.09262 -3.57813,-8.80078 -1.96765,-4.70812 -3.72618,-8.91936 -3.9082,-9.35937 -0.21409,-0.51755 -0.45976,-0.78408 -0.76172,-0.76563 z m 181.79492,0.0449 c -5.53847,-0.0601 -9.0664,3.56295 -9.0664,9.46875 0,5.17153 1.72014,7.75999 6.23437,9.38477 4.13824,1.48943 8.72217,-0.13367 11.05859,-3.91406 1.16504,-1.88459 1.36696,-2.97132 1.13868,-6.12696 -0.24386,-3.37141 -0.55705,-4.11568 -2.57422,-6.13281 -1.8988,-1.8988 -2.877,-2.35193 -5.6582,-2.61914 -0.38666,-0.0371 -0.76359,-0.0565 -1.13282,-0.0606 z m -234.005857,0.0586 c -1.965693,-0.0915 -4.044302,0.22705 -5.460937,0.99023 -2.559931,1.37908 -5.119141,5.76775 -5.119141,8.77734 0,4.12483 3.546338,8.34956 7.757813,9.24024 2.346394,0.49625 5.207807,0.0553 7.457031,-1.14844 1.179496,-0.63125 1.423828,-1.30924 1.423828,-3.93945 0,-2.39777 -0.234555,-3.17774 -0.958985,-3.17774 -0.691918,0 -0.960937,0.70824 -0.960937,2.53711 0,2.98266 -1.144068,3.86328 -5.027344,3.86328 -6.598363,0 -9.900663,-8.9566 -4.894531,-13.27539 2.434571,-2.10032 4.650832,-2.4491 7.974609,-1.2539 3.273445,1.17713 4.541919,0.61659 2.59375,-1.14649 -0.96579,-0.87401 -2.819462,-1.37532 -4.785156,-1.46679 z m 164.138677,0.17968 c -0.79703,0 -0.98976,1.46253 -1.13868,8.60743 -0.0986,4.73423 -0.0265,9.00711 0.16016,9.49414 0.1869,0.48703 0.69885,0.76578 1.13867,0.61914 0.59025,-0.19676 0.80078,-2.68377 0.80078,-9.49414 0,-7.77479 -0.15196,-9.22657 -0.96093,-9.22657 z m -80.63868,0.002 c -0.79685,0 -0.99167,1.46252 -1.14062,8.60742 -0.0987,4.73424 -0.0267,9.00711 0.16015,9.49414 0.1869,0.48703 0.70082,0.76579 1.14063,0.61914 0.59024,-0.19676 0.79883,-2.68377 0.79883,-9.49414 0,-7.77479 -0.15005,-9.22656 -0.95899,-9.22656 z m 150.27344,1.63476 c 1.27573,-0.0557 2.63293,0.23569 3.98633,0.93555 4.76122,2.46214 5.03884,10.19779 0.48047,13.39062 -0.78433,0.54936 -2.68569,1 -4.22656,1 -2.33281,0 -3.16662,-0.36387 -4.97852,-2.17578 -1.77547,-1.77547 -2.17578,-2.66504 -2.17578,-4.83203 0,-4.84889 3.08688,-8.1513 6.91406,-8.31836 z m -81.63867,0.0527 c 1.58002,0.0383 2.43146,0.31498 3.11719,0.93554 1.36996,1.2398 1.58189,3.46499 0.43945,4.60743 -0.44795,0.44787 -2.59548,0.76757 -5.1543,0.76757 h -4.38867 l 0.19531,-3.03906 0.19532,-3.04101 3.75195,-0.19336 c 0.7099,-0.0367 1.31707,-0.0499 1.84375,-0.0371 z m 61.0293,0.0293 c 4.78656,0.21504 7.17832,4.36428 3.89453,7.44922 v 0.002 c -1.08862,1.02266 -2.28131,1.39062 -4.5,1.39062 -3.52146,0 -3.77125,-0.36919 -3.4961,-5.19531 l 0.19727,-3.44531 2.91601,-0.18946 c 0.33942,-0.0221 0.66918,-0.026 0.98829,-0.0117 z m -143.36133,0.002 c 4.78655,0.21503 7.17832,4.36427 3.89453,7.44922 -1.08863,1.02266 -2.28132,1.39257 -4.5,1.39257 -3.5211,0 -3.76929,-0.37114 -3.49414,-5.19726 l 0.19531,-3.44336 2.91602,-0.18945 c 0.33941,-0.0221 0.66917,-0.0261 0.98828,-0.0117 z m 27.375,1.54492 1.72461,3.86328 c 0.94851,2.12413 1.92228,4.48433 2.16406,5.24609 0.42074,1.32571 0.25631,1.38477 -3.83203,1.38477 -3.15968,0 -4.18956,-0.20707 -3.95508,-0.79883 0.17435,-0.44001 1.12268,-2.80212 2.10742,-5.24805 z m -45.44141,0.002 1.72461,3.86328 c 0.94851,2.12417 1.92229,4.48433 2.16406,5.2461 0.42074,1.3257 0.25826,1.38476 -3.83008,1.38476 -3.15968,0 -4.18956,-0.20706 -3.95507,-0.79883 0.17435,-0.44001 1.12269,-2.80208 2.10742,-5.24804 z m 101.3418,6.73633 c 1.82556,0.0337 2.52299,0.33937 3.35156,1.16797 1.64939,1.64772 1.65627,2.88088 0.0293,4.50781 h -0.002 c -1.01869,1.01881 -2.13224,1.28125 -5.45898,1.28125 -4.67014,0 -4.98753,-0.29073 -4.66211,-4.2539 l 0.20117,-2.4668 4.29102,-0.1875 c 0.90576,-0.0398 1.64148,-0.06 2.25,-0.0488 z"
       inkscape:connector-curvature="0" />
    <path
       transform="translate(-1.1666667e-6)"
       inkscape:connector-curvature="0"
       style="display:inline;fill:#c7bba4;stroke-width:0.25225407;fill-opacity:1"
       d="m 118.96707,114.89309 a 17.486685,17.486685 0 0 0 -17.48662,17.48662 17.486685,17.486685 0 0 0 17.48662,17.48707 17.486685,17.486685 0 0 0 17.4866,-17.48707 17.486685,17.486685 0 0 0 -17.4866,-17.48662 z m 0.0321,14.7827 a 2.9162687,2.8585208 0 0 1 2.91583,2.85867 2.9162687,2.8585208 0 0 1 -2.91583,2.8582 2.9162687,2.8585208 0 0 1 -2.91629,-2.8582 2.9162687,2.8585208 0 0 1 2.91629,-2.85867 z"
       id="path3899" />
  </g>
</svg>
