<?xml version="1.0" standalone="no"?><!-- Generator: Gravit.io --><svg xmlns="http://www.w3.org/2000/svg" xmlns:xlink="http://www.w3.org/1999/xlink" style="isolation:isolate" viewBox="0 0 285.875 142.75" width="285.875" height="142.75"><defs><clipPath id="_clipPath_KmCI9567wyhrftrkp9DC24jPuoLUjUwj"><rect width="285.875" height="142.75"/></clipPath></defs><g clip-path="url(#_clipPath_KmCI9567wyhrftrkp9DC24jPuoLUjUwj)"><path d=" M 1.5 141.25 L 1.5 136.75 L 96.563 136.75 L 96.563 25.813 L 120.875 1.5 L 157.188 37.813 L 143 52 L 128.938 37.938 L 136.875 30 L 139.625 32.75 L 134.875 37.5 L 143.25 45.875 L 151.125 38 L 120.688 7.563 L 100.75 27.5 L 100.75 141.125 L 1.5 141.25 Z " fill="none" vector-effect="non-scaling-stroke" stroke-width="1" stroke="rgb(0,0,0)" stroke-linejoin="miter" stroke-linecap="square" stroke-miterlimit="3"/><path d=" M 284.375 141 L 284.375 136.813 L 189.5 136.813 L 189.5 95.25 L 189.5 25.75 L 165.25 1.5 L 146 20.75 L 148.938 23.688 L 165.063 7.563 L 185.188 27.688 L 185.188 141.25 L 284.375 141 Z " fill="none" vector-effect="non-scaling-stroke" stroke-width="1" stroke="rgb(0,0,0)" stroke-linejoin="miter" stroke-linecap="square" stroke-miterlimit="3"/></g></svg>