<?xml version="1.0" standalone="no"?><!-- Generator: Gravit.io --><svg xmlns="http://www.w3.org/2000/svg" xmlns:xlink="http://www.w3.org/1999/xlink" style="isolation:isolate" viewBox="0 0 288.972 32.472" width="288.972" height="32.472"><defs><clipPath id="_clipPath_rap2atgeRbvAqWdVnF5Iq6DOp91FAxFP"><rect width="288.972" height="32.472"/></clipPath></defs><g clip-path="url(#_clipPath_rap2atgeRbvAqWdVnF5Iq6DOp91FAxFP)">
<path style='stroke: black;' d=" M 211.284 12.24 L 211.284 12.24 L 212.184 12.384 L 212.184 12.384 Q 213.912 12.384 217.314 10.854 L 217.314 10.854 L 217.314 10.854 Q 220.716 9.324 223.56 7.056 L 223.56 7.056 L 223.56 7.056 Q 226.404 4.788 226.404 3.06 L 226.404 3.06 L 226.404 3.06 Q 226.404 1.944 225.306 1.512 L 225.306 1.512 L 225.306 1.512 Q 224.208 1.08 222.912 1.08 L 222.912 1.08 L 222.912 1.08 Q 218.7 1.08 213.84 3.492 L 213.84 3.492 L 213.84 3.492 Q 208.98 5.904 205.452 9.18 L 205.452 9.18 L 205.452 9.18 Q 200.7 13.608 200.7 17.604 L 200.7 17.604 L 200.7 17.604 Q 200.7 19.332 201.564 20.628 L 201.564 20.628 L 201.564 20.628 Q 202.428 21.924 203.868 22.644 L 203.868 22.644 L 203.868 22.644 Q 206.568 23.976 209.916 23.976 L 209.916 23.976 L 209.916 23.976 Q 211.428 23.976 213.624 23.652 L 213.624 23.652 L 213.624 23.652 Q 217.44 22.968 220.158 21.852 L 220.158 21.852 L 220.158 21.852 Q 222.876 20.736 225.612 18.504 L 225.612 18.504 L 225.612 18.504 Q 225.756 18.432 225.792 18.432 L 225.792 18.432 L 225.792 18.432 Q 225.972 18.432 225.972 18.594 L 225.972 18.594 L 225.972 18.594 Q 225.972 18.756 225.828 18.972 L 225.828 18.972 L 225.828 18.972 Q 223.128 21.888 218.304 23.742 L 218.304 23.742 L 218.304 23.742 Q 213.48 25.596 209.268 25.596 L 209.268 25.596 L 209.268 25.596 Q 203.868 25.596 201.168 22.428 L 201.168 22.428 L 201.168 22.428 Q 199.692 20.664 199.692 18.18 L 199.692 18.18 L 199.692 18.18 Q 199.692 13.356 204.912 8.64 L 204.912 8.64 L 204.912 8.64 Q 208.836 5.112 214.344 2.556 L 214.344 2.556 L 214.344 2.556 Q 219.852 0 224.604 0 L 224.604 0 L 224.604 0 Q 227.52 0 229.14 1.404 L 229.14 1.404 L 229.14 1.404 Q 230.076 2.268 230.076 3.528 L 230.076 3.528 L 230.076 3.528 Q 230.076 5.292 228.294 7.074 L 228.294 7.074 L 228.294 7.074 Q 226.512 8.856 224.01 10.116 L 224.01 10.116 L 224.01 10.116 Q 221.508 11.376 219.006 12.222 L 219.006 12.222 L 219.006 12.222 Q 216.504 13.068 215.514 13.158 L 215.514 13.158 L 215.514 13.158 Q 214.524 13.248 214.002 13.248 L 214.002 13.248 L 214.002 13.248 Q 213.48 13.248 212.94 13.212 L 212.94 13.212 L 212.94 13.212 Q 211.068 13.032 211.068 12.42 L 211.068 12.42 L 211.068 12.42 Q 211.068 12.24 211.284 12.24 Z  M 232.776 18.396 L 232.776 18.396 L 232.776 18.396 Q 232.416 18.936 231.804 19.764 L 231.804 19.764 L 231.804 19.764 Q 231.192 20.592 230.652 21.348 L 230.652 21.348 L 230.652 21.348 Q 230.112 22.104 230.112 22.482 L 230.112 22.482 L 230.112 22.482 Q 230.112 22.86 230.472 22.86 L 230.472 22.86 L 230.472 22.86 Q 231.12 22.86 232.38 21.708 L 232.38 21.708 L 233.532 20.592 L 233.532 20.592 Q 235.296 18.684 236.628 16.92 L 236.628 16.92 L 237.96 15.3 L 237.96 15.3 Q 238.572 14.616 239.256 14.58 L 239.256 14.58 L 239.256 14.58 Q 240.3 14.58 241.2 15.372 L 241.2 15.372 L 241.2 15.372 Q 240.984 15.696 240.498 16.308 L 240.498 16.308 L 240.498 16.308 Q 240.012 16.92 239.526 17.55 L 239.526 17.55 L 239.526 17.55 Q 239.04 18.18 238.41 19.008 L 238.41 19.008 L 238.41 19.008 Q 237.78 19.836 237.312 20.556 L 237.312 20.556 L 237.312 20.556 Q 236.844 21.276 236.358 22.086 L 236.358 22.086 L 236.358 22.086 Q 235.872 22.896 235.656 23.472 L 235.656 23.472 L 235.656 23.472 Q 235.116 25.056 235.692 25.452 L 235.692 25.452 L 235.692 25.452 Q 235.872 25.632 235.62 25.632 L 235.62 25.632 L 235.62 25.632 Q 235.548 25.632 235.476 25.596 L 235.476 25.596 L 235.476 25.596 Q 234.108 25.128 234.108 23.364 L 234.108 23.364 L 234.108 23.364 Q 234.108 21.6 235.26 19.188 L 235.26 19.188 L 235.26 19.188 Q 231.408 24.156 228.996 24.156 L 228.996 24.156 L 228.996 24.156 Q 227.16 24.156 227.16 22.428 L 227.16 22.428 L 227.16 22.428 Q 227.16 21.816 227.412 20.988 L 227.412 20.988 L 227.412 20.988 Q 227.952 19.368 231.084 15.876 L 231.084 15.876 L 231.084 15.876 Q 231.48 15.408 231.48 15.084 L 231.48 15.084 L 231.48 15.084 Q 231.48 14.76 231.048 14.76 L 231.048 14.76 L 231.048 14.76 Q 230.616 14.76 229.752 15.408 L 229.752 15.408 L 229.752 15.408 Q 228.888 16.056 227.34 17.514 L 227.34 17.514 L 227.34 17.514 Q 225.792 18.972 225.45 19.26 L 225.45 19.26 L 225.45 19.26 Q 225.108 19.548 225.108 19.116 L 225.108 19.116 L 225.108 19.116 Q 225.108 18.9 225.792 18.342 L 225.792 18.342 L 225.792 18.342 Q 226.476 17.784 227.664 16.542 L 227.664 16.542 L 227.664 16.542 Q 228.852 15.3 229.734 14.634 L 229.734 14.634 L 229.734 14.634 Q 230.616 13.968 231.768 13.968 L 231.768 13.968 L 231.768 13.968 Q 233.064 13.968 233.532 14.94 L 233.532 14.94 L 233.532 14.94 Q 233.712 15.3 233.712 15.876 L 233.712 15.876 L 233.712 15.876 Q 233.712 16.452 233.424 17.154 L 233.424 17.154 L 233.424 17.154 Q 233.136 17.856 232.776 18.396 Z  M 250.848 15.876 L 250.848 15.876 L 250.848 15.876 Q 251.352 15.3 251.352 14.976 L 251.352 14.976 L 251.352 14.976 Q 251.352 14.652 250.686 14.652 L 250.686 14.652 L 250.686 14.652 Q 250.02 14.652 248.58 15.912 L 248.58 15.912 L 248.58 15.912 Q 247.248 17.064 245.358 19.764 L 245.358 19.764 L 245.358 19.764 Q 243.468 22.464 242.622 23.418 L 242.622 23.418 L 242.622 23.418 Q 241.776 24.372 241.128 24.372 L 241.128 24.372 L 241.128 24.372 Q 241.056 24.372 240.984 24.372 L 240.984 24.372 L 240.984 24.372 Q 240.048 24.372 239.148 23.616 L 239.148 23.616 L 239.148 23.616 Q 239.364 23.292 240.192 22.212 L 240.192 22.212 L 240.192 22.212 Q 242.028 19.98 243.396 17.892 L 243.396 17.892 L 243.396 17.892 Q 241.848 19.44 240.768 20.304 L 240.768 20.304 L 240.768 20.304 Q 240.408 20.592 240.354 20.34 L 240.354 20.34 L 240.354 20.34 Q 240.3 20.088 240.516 19.89 L 240.516 19.89 L 240.516 19.89 Q 240.732 19.692 241.236 19.242 L 241.236 19.242 L 241.236 19.242 Q 241.74 18.792 241.902 18.648 L 241.902 18.648 L 241.902 18.648 Q 242.064 18.504 242.514 18.09 L 242.514 18.09 L 242.514 18.09 Q 242.964 17.676 243.18 17.424 L 243.18 17.424 L 243.18 17.424 Q 244.188 16.236 244.656 15.408 L 244.656 15.408 L 244.656 15.408 Q 244.836 14.976 244.818 14.562 L 244.818 14.562 L 244.818 14.562 Q 244.8 14.148 244.638 14.022 L 244.638 14.022 L 244.638 14.022 Q 244.476 13.896 244.512 13.716 L 244.512 13.716 L 244.512 13.716 Q 244.512 13.428 244.8 13.428 L 244.8 13.428 L 244.8 13.428 Q 244.944 13.428 245.124 13.5 L 245.124 13.5 L 245.124 13.5 Q 246.24 14.004 246.24 15.498 L 246.24 15.498 L 246.24 15.498 Q 246.24 16.992 245.592 18.684 L 245.592 18.684 L 245.592 18.684 Q 246.996 16.848 247.716 16.056 L 247.716 16.056 L 247.716 16.056 Q 249.588 13.968 251.388 13.968 L 251.388 13.968 L 251.388 13.968 Q 253.152 13.968 253.476 15.48 L 253.476 15.48 L 253.476 15.48 Q 253.512 15.696 253.512 16.146 L 253.512 16.146 L 253.512 16.146 Q 253.512 16.596 253.17 17.352 L 253.17 17.352 L 253.17 17.352 Q 252.828 18.108 251.568 19.836 L 251.568 19.836 L 251.568 19.836 Q 250.308 21.564 250.11 22.014 L 250.11 22.014 L 250.11 22.014 Q 249.912 22.464 249.984 22.68 L 249.984 22.68 L 249.984 22.68 Q 250.056 22.896 250.308 22.932 L 250.308 22.932 L 250.308 22.932 Q 250.74 23.004 251.784 22.356 L 251.784 22.356 L 251.784 22.356 Q 253.26 21.312 255.6 19.152 L 255.6 19.152 L 255.6 19.152 Q 255.996 18.756 255.996 19.224 L 255.996 19.224 L 255.996 19.224 Q 255.996 19.404 255.816 19.584 L 255.816 19.584 L 255.816 19.584 Q 252.324 22.824 250.632 23.616 L 250.632 23.616 L 250.632 23.616 Q 248.652 24.624 247.536 23.94 L 247.536 23.94 L 247.536 23.94 Q 246.852 23.508 246.852 22.734 L 246.852 22.734 L 246.852 22.734 Q 246.852 21.96 247.14 21.168 L 247.14 21.168 L 247.14 21.168 Q 247.788 19.332 250.848 15.876 Z  M 265.284 15.156 L 265.284 15.156 L 265.284 15.156 Q 265.284 14.688 264.6 14.688 L 264.6 14.688 L 264.6 14.688 Q 263.376 14.688 261.612 16.416 L 261.612 16.416 L 261.612 16.416 Q 261.18 16.848 260.046 18.216 L 260.046 18.216 L 260.046 18.216 Q 258.912 19.584 257.832 21.348 L 257.832 21.348 L 256.932 23.328 L 257.04 22.968 L 257.04 22.968 Q 256.968 23.112 256.896 23.4 L 256.896 23.4 L 256.896 23.4 L 256.896 23.4 Q 256.716 23.832 255.852 24.12 L 255.852 24.12 L 255.852 24.12 Q 255.672 24.192 255.528 24.192 L 255.528 24.192 L 255.528 24.192 Q 255.168 24.192 255.456 23.652 L 255.456 23.652 L 255.456 23.652 Q 255.6 23.292 256.464 21.078 L 256.464 21.078 L 256.464 21.078 Q 257.328 18.864 257.868 17.532 L 257.868 17.532 L 257.868 17.532 Q 256.464 19.08 255.24 20.052 L 255.24 20.052 L 255.24 20.052 Q 254.88 20.34 254.736 20.124 L 254.736 20.124 L 254.736 20.124 Q 254.7 20.088 254.7 19.98 L 254.7 19.98 L 254.7 19.98 Q 254.7 19.872 255.024 19.584 L 255.024 19.584 L 255.024 19.584 Q 257.22 17.676 258.48 16.056 L 258.48 16.056 L 258.48 16.056 Q 259.416 13.86 261.918 9.954 L 261.918 9.954 L 261.918 9.954 Q 264.42 6.048 267.048 3.492 L 267.048 3.492 L 267.048 3.492 Q 268.812 1.728 270.864 1.116 L 270.864 1.116 L 270.864 1.116 Q 271.8 0.828 272.61 0.828 L 272.61 0.828 L 272.61 0.828 Q 273.42 0.828 274.122 1.278 L 274.122 1.278 L 274.122 1.278 Q 274.824 1.728 274.824 2.952 L 274.824 2.952 L 274.824 2.952 Q 274.824 4.572 273.744 6.228 L 273.744 6.228 L 273.744 6.228 Q 272.664 7.884 269.928 9.918 L 269.928 9.918 L 269.928 9.918 Q 267.192 11.952 264.852 12.96 L 264.852 12.96 L 264.852 12.96 Q 264.42 13.14 264.348 12.906 L 264.348 12.906 L 264.348 12.906 Q 264.276 12.672 264.708 12.492 L 264.708 12.492 L 264.708 12.492 Q 266.796 11.556 269.406 9.54 L 269.406 9.54 L 269.406 9.54 Q 272.016 7.524 272.898 6.102 L 272.898 6.102 L 272.898 6.102 Q 273.78 4.68 273.78 3.798 L 273.78 3.798 L 273.78 3.798 Q 273.78 2.916 273.024 2.916 L 273.024 2.916 L 273.024 2.916 Q 272.16 2.916 270.288 4.356 L 270.288 4.356 L 270.288 4.356 Q 267.516 6.588 264.474 10.584 L 264.474 10.584 L 264.474 10.584 Q 261.432 14.58 259.236 18.648 L 259.236 18.648 L 259.236 18.648 Q 260.244 17.208 261.072 16.272 L 261.072 16.272 L 261.072 16.272 Q 263.088 14.004 264.996 14.004 L 264.996 14.004 L 264.996 14.004 Q 266.796 14.004 267.12 15.588 L 267.12 15.588 L 267.12 15.588 Q 267.156 15.804 267.156 16.2 L 267.156 16.2 L 267.156 16.2 Q 267.156 16.596 266.886 17.37 L 266.886 17.37 L 266.886 17.37 Q 266.616 18.144 265.374 20.214 L 265.374 20.214 L 265.374 20.214 Q 264.132 22.284 264.132 22.716 L 264.132 22.716 L 264.132 22.716 Q 264.132 23.148 264.42 23.148 L 264.42 23.148 L 264.42 23.148 Q 264.816 23.148 265.608 22.644 L 265.608 22.644 L 265.608 22.644 Q 267.624 21.384 270.864 18.396 L 270.864 18.396 L 270.864 18.396 Q 271.296 17.964 271.278 18.252 L 271.278 18.252 L 271.278 18.252 Q 271.26 18.54 271.044 18.792 L 271.044 18.792 L 271.044 18.792 Q 268.38 21.528 265.536 23.364 L 265.536 23.364 L 265.536 23.364 Q 264.204 24.228 263.124 24.228 L 263.124 24.228 L 263.124 24.228 Q 262.836 24.228 262.584 24.156 L 262.584 24.156 L 262.584 24.156 Q 261.18 23.868 261.18 22.59 L 261.18 22.59 L 261.18 22.59 Q 261.18 21.312 262.188 19.728 L 262.188 19.728 L 262.188 19.728 Q 262.368 19.476 263.52 18.036 L 263.52 18.036 L 263.52 18.036 Q 265.284 15.876 265.284 15.156 Z  M 283.032 18.396 L 283.032 18.396 L 283.032 18.396 Q 282.636 18.864 282.222 19.404 L 282.222 19.404 L 282.222 19.404 Q 281.808 19.944 281.178 20.88 L 281.178 20.88 L 281.178 20.88 Q 280.548 21.816 280.548 22.464 L 280.548 22.464 L 280.548 22.464 Q 280.548 23.112 281.106 23.112 L 281.106 23.112 L 281.106 23.112 Q 281.664 23.112 282.924 22.428 L 282.924 22.428 L 282.924 22.428 Q 285.444 20.988 288.504 18.108 L 288.504 18.108 L 288.504 18.108 Q 288.864 17.748 288.972 18 L 288.972 18 L 288.972 18 Q 288.972 18.036 288.972 18.144 L 288.972 18.144 L 288.972 18.144 Q 288.972 18.252 288.828 18.396 L 288.828 18.396 L 288.828 18.396 Q 282.636 24.228 279.828 24.228 L 279.828 24.228 L 279.828 24.228 Q 279 24.228 278.442 23.67 L 278.442 23.67 L 278.442 23.67 Q 277.884 23.112 277.884 22.356 L 277.884 22.356 L 277.884 22.356 Q 277.884 21.6 278.532 20.052 L 278.532 20.052 L 278.532 20.052 Q 276.912 22.068 275.058 23.166 L 275.058 23.166 L 275.058 23.166 Q 273.204 24.264 272.16 24.264 L 272.16 24.264 L 272.16 24.264 Q 271.116 24.264 270.378 23.634 L 270.378 23.634 L 270.378 23.634 Q 269.64 23.004 269.64 22.068 L 269.64 22.068 L 269.64 22.068 Q 269.64 19.404 272.016 16.848 L 272.016 16.848 L 272.016 16.848 Q 273.816 14.94 276.48 14.148 L 276.48 14.148 L 276.48 14.148 Q 277.668 13.752 278.802 13.752 L 278.802 13.752 L 278.802 13.752 Q 279.936 13.752 280.998 14.382 L 280.998 14.382 L 280.998 14.382 Q 282.06 15.012 282.348 15.876 L 282.348 15.876 L 282.348 15.876 Q 283.428 15.876 283.896 16.668 L 283.896 16.668 L 283.896 16.668 Q 283.968 16.776 283.968 17.028 L 283.968 17.028 L 283.968 17.028 Q 283.968 17.28 283.698 17.604 L 283.698 17.604 L 283.698 17.604 Q 283.428 17.928 283.032 18.396 Z  M 280.404 14.832 L 280.404 14.832 L 280.404 14.832 Q 279.648 14.832 278.604 15.3 L 278.604 15.3 L 278.604 15.3 Q 276.768 16.092 275.112 18.036 L 275.112 18.036 L 275.112 18.036 Q 272.484 21.132 272.484 22.572 L 272.484 22.572 L 272.484 22.572 Q 272.484 23.328 273.096 23.328 L 273.096 23.328 L 273.096 23.328 Q 273.6 23.328 274.77 22.68 L 274.77 22.68 L 274.77 22.68 Q 275.94 22.032 277.848 20.124 L 277.848 20.124 L 277.848 20.124 Q 277.956 20.016 278.676 19.332 L 278.676 19.332 L 278.676 19.332 Q 279.396 18.648 279.9 18.144 L 279.9 18.144 L 279.9 18.144 Q 281.592 16.38 281.592 15.606 L 281.592 15.606 L 281.592 15.606 Q 281.592 14.832 280.404 14.832 Z  M 70.344 24.66 L 70.344 24.66 L 70.344 24.66 Q 70.2 24.66 70.2 24.372 L 70.2 24.372 L 70.2 24.372 Q 70.2 23.868 72.216 21.348 L 72.216 21.348 L 72.216 21.348 Q 72.504 20.988 74.556 18.504 L 74.556 18.504 L 74.556 18.504 Q 76.608 16.02 77.4 15.012 L 77.4 15.012 L 77.4 15.012 Q 80.352 11.196 81.342 9.216 L 81.342 9.216 L 81.342 9.216 Q 82.332 7.236 82.332 5.94 L 82.332 5.94 L 82.332 5.94 Q 82.332 2.988 77.436 2.988 L 77.436 2.988 L 77.436 2.988 Q 72.252 2.988 63.972 5.796 L 63.972 5.796 L 63.972 5.796 Q 58.176 7.776 58.176 9.468 L 58.176 9.468 L 58.176 9.468 Q 58.176 10.08 59.004 10.656 L 59.004 10.656 L 59.004 10.656 Q 59.256 10.8 58.986 10.818 L 58.986 10.818 L 58.986 10.818 Q 58.716 10.836 58.536 10.728 L 58.536 10.728 L 58.536 10.728 Q 57.456 10.008 57.456 8.856 L 57.456 8.856 L 57.456 8.856 Q 57.456 7.704 58.122 6.57 L 58.122 6.57 L 58.122 6.57 Q 58.788 5.436 60.3 4.608 L 60.3 4.608 L 60.3 4.608 Q 63.756 2.628 68.58 1.404 L 68.58 1.404 L 68.58 1.404 Q 73.764 0.072 78.264 0.072 L 78.264 0.072 L 78.264 0.072 Q 83.016 0.072 84.384 1.836 L 84.384 1.836 L 84.384 1.836 Q 85.284 2.952 85.284 4.05 L 85.284 4.05 L 85.284 4.05 Q 85.284 5.148 84.852 6.228 L 84.852 6.228 L 84.852 6.228 Q 84.06 8.424 82.296 10.548 L 82.296 10.548 L 82.296 10.548 Q 81.936 11.016 79.866 13.446 L 79.866 13.446 L 79.866 13.446 Q 77.796 15.876 76.644 17.316 L 76.644 17.316 L 76.644 17.316 Q 89.64 3.636 94.932 3.636 L 94.932 3.636 L 94.932 3.636 Q 96.444 3.636 97.092 4.932 L 97.092 4.932 L 97.092 4.932 Q 97.452 5.652 97.452 6.192 L 97.452 6.192 L 97.452 6.192 Q 97.452 6.732 97.38 7.416 L 97.38 7.416 L 97.38 7.416 Q 97.272 9.216 94.356 14.148 L 94.356 14.148 L 94.356 14.148 Q 98.748 9.576 102.204 7.02 L 102.204 7.02 L 102.204 7.02 Q 106.38 3.924 109.332 3.924 L 109.332 3.924 L 109.332 3.924 Q 111.024 3.924 111.024 5.346 L 111.024 5.346 L 111.024 5.346 Q 111.024 6.768 109.224 9.432 L 109.224 9.432 L 109.224 9.432 Q 98.604 25.02 98.604 30.168 L 98.604 30.168 L 98.604 30.168 Q 98.604 31.788 99.54 31.932 L 99.54 31.932 L 99.54 31.932 Q 100.116 32.04 100.764 31.572 L 100.764 31.572 L 100.764 31.572 Q 101.016 31.392 101.196 31.626 L 101.196 31.626 L 101.196 31.626 Q 101.376 31.86 101.052 32.166 L 101.052 32.166 L 101.052 32.166 Q 100.728 32.472 100.296 32.472 L 100.296 32.472 L 100.296 32.472 Q 99.864 32.472 99.288 32.4 L 99.288 32.4 L 99.288 32.4 Q 98.712 32.328 97.776 31.95 L 97.776 31.95 L 97.776 31.95 Q 96.84 31.572 96.21 30.69 L 96.21 30.69 L 96.21 30.69 Q 95.58 29.808 95.58 28.728 L 95.58 28.728 L 95.58 28.728 Q 95.58 27.18 95.976 25.956 L 95.976 25.956 L 95.976 25.956 Q 96.948 23.112 105.084 11.772 L 105.084 11.772 L 105.084 11.772 Q 107.532 8.352 107.532 6.876 L 107.532 6.876 L 107.532 6.876 Q 107.532 5.76 106.38 5.76 L 106.38 5.76 L 106.38 5.76 Q 104.832 5.76 102.744 7.344 L 102.744 7.344 L 102.744 7.344 Q 98.28 10.728 92.772 16.776 L 92.772 16.776 L 92.772 16.776 Q 91.26 19.224 89.028 22.5 L 89.028 22.5 L 89.028 22.5 Q 88.704 22.968 88.272 22.968 L 88.272 22.968 L 88.272 22.968 Q 86.832 22.968 86.832 22.32 L 86.832 22.32 L 86.832 22.32 Q 86.832 22.176 86.904 22.032 L 86.904 22.032 L 86.904 22.032 Q 92.88 11.664 93.6 8.748 L 93.6 8.748 L 93.6 8.748 Q 93.816 7.74 93.816 7.182 L 93.816 7.182 L 93.816 7.182 Q 93.816 6.624 93.78 6.3 L 93.78 6.3 L 93.78 6.3 Q 93.528 5.256 92.484 5.256 L 92.484 5.256 L 92.484 5.256 Q 91.44 5.256 89.64 6.444 L 89.64 6.444 L 89.64 6.444 Q 86.544 8.424 81.972 12.816 L 81.972 12.816 L 81.972 12.816 Q 77.4 17.208 73.188 21.924 L 73.188 21.924 L 73.188 21.924 Q 73.08 22.032 72.936 22.032 L 72.936 22.032 L 72.936 22.032 Q 70.848 24.66 70.344 24.66 Z  M 118.44 18.396 L 118.44 18.396 L 118.44 18.396 Q 118.044 18.864 117.63 19.404 L 117.63 19.404 L 117.63 19.404 Q 117.216 19.944 116.586 20.88 L 116.586 20.88 L 116.586 20.88 Q 115.956 21.816 115.956 22.464 L 115.956 22.464 L 115.956 22.464 Q 115.956 23.112 116.514 23.112 L 116.514 23.112 L 116.514 23.112 Q 117.072 23.112 118.332 22.428 L 118.332 22.428 L 118.332 22.428 Q 120.852 20.988 123.912 18.108 L 123.912 18.108 L 123.912 18.108 Q 124.272 17.748 124.38 18 L 124.38 18 L 124.38 18 Q 124.38 18.036 124.38 18.144 L 124.38 18.144 L 124.38 18.144 Q 124.38 18.252 124.236 18.396 L 124.236 18.396 L 124.236 18.396 Q 118.044 24.228 115.236 24.228 L 115.236 24.228 L 115.236 24.228 Q 114.408 24.228 113.85 23.67 L 113.85 23.67 L 113.85 23.67 Q 113.292 23.112 113.292 22.356 L 113.292 22.356 L 113.292 22.356 Q 113.292 21.6 113.94 20.052 L 113.94 20.052 L 113.94 20.052 Q 112.32 22.068 110.466 23.166 L 110.466 23.166 L 110.466 23.166 Q 108.612 24.264 107.568 24.264 L 107.568 24.264 L 107.568 24.264 Q 106.524 24.264 105.786 23.634 L 105.786 23.634 L 105.786 23.634 Q 105.048 23.004 105.048 22.068 L 105.048 22.068 L 105.048 22.068 Q 105.048 19.404 107.424 16.848 L 107.424 16.848 L 107.424 16.848 Q 109.224 14.94 111.888 14.148 L 111.888 14.148 L 111.888 14.148 Q 113.076 13.752 114.21 13.752 L 114.21 13.752 L 114.21 13.752 Q 115.344 13.752 116.406 14.382 L 116.406 14.382 L 116.406 14.382 Q 117.468 15.012 117.756 15.876 L 117.756 15.876 L 117.756 15.876 Q 118.836 15.876 119.304 16.668 L 119.304 16.668 L 119.304 16.668 Q 119.376 16.776 119.376 17.028 L 119.376 17.028 L 119.376 17.028 Q 119.376 17.28 119.106 17.604 L 119.106 17.604 L 119.106 17.604 Q 118.836 17.928 118.44 18.396 Z  M 115.812 14.832 L 115.812 14.832 L 115.812 14.832 Q 115.056 14.832 114.012 15.3 L 114.012 15.3 L 114.012 15.3 Q 112.176 16.092 110.52 18.036 L 110.52 18.036 L 110.52 18.036 Q 107.892 21.132 107.892 22.572 L 107.892 22.572 L 107.892 22.572 Q 107.892 23.328 108.504 23.328 L 108.504 23.328 L 108.504 23.328 Q 109.008 23.328 110.178 22.68 L 110.178 22.68 L 110.178 22.68 Q 111.348 22.032 113.256 20.124 L 113.256 20.124 L 113.256 20.124 Q 113.364 20.016 114.084 19.332 L 114.084 19.332 L 114.084 19.332 Q 114.804 18.648 115.308 18.144 L 115.308 18.144 L 115.308 18.144 Q 117 16.38 117 15.606 L 117 15.606 L 117 15.606 Q 117 14.832 115.812 14.832 Z  M 132.228 15.876 L 132.228 15.876 L 132.228 15.876 Q 132.732 15.3 132.732 14.976 L 132.732 14.976 L 132.732 14.976 Q 132.732 14.652 132.066 14.652 L 132.066 14.652 L 132.066 14.652 Q 131.4 14.652 129.96 15.912 L 129.96 15.912 L 129.96 15.912 Q 128.628 17.064 126.738 19.764 L 126.738 19.764 L 126.738 19.764 Q 124.848 22.464 124.002 23.418 L 124.002 23.418 L 124.002 23.418 Q 123.156 24.372 122.508 24.372 L 122.508 24.372 L 122.508 24.372 Q 122.436 24.372 122.364 24.372 L 122.364 24.372 L 122.364 24.372 Q 121.428 24.372 120.528 23.616 L 120.528 23.616 L 120.528 23.616 Q 120.744 23.292 121.572 22.212 L 121.572 22.212 L 121.572 22.212 Q 123.408 19.98 124.776 17.892 L 124.776 17.892 L 124.776 17.892 Q 123.228 19.44 122.148 20.304 L 122.148 20.304 L 122.148 20.304 Q 121.788 20.592 121.734 20.34 L 121.734 20.34 L 121.734 20.34 Q 121.68 20.088 121.896 19.89 L 121.896 19.89 L 121.896 19.89 Q 122.112 19.692 122.616 19.242 L 122.616 19.242 L 122.616 19.242 Q 123.12 18.792 123.282 18.648 L 123.282 18.648 L 123.282 18.648 Q 123.444 18.504 123.894 18.09 L 123.894 18.09 L 123.894 18.09 Q 124.344 17.676 124.56 17.424 L 124.56 17.424 L 124.56 17.424 Q 125.568 16.236 126.036 15.408 L 126.036 15.408 L 126.036 15.408 Q 126.216 14.976 126.198 14.562 L 126.198 14.562 L 126.198 14.562 Q 126.18 14.148 126.018 14.022 L 126.018 14.022 L 126.018 14.022 Q 125.856 13.896 125.892 13.716 L 125.892 13.716 L 125.892 13.716 Q 125.892 13.428 126.18 13.428 L 126.18 13.428 L 126.18 13.428 Q 126.324 13.428 126.504 13.5 L 126.504 13.5 L 126.504 13.5 Q 127.62 14.004 127.62 15.498 L 127.62 15.498 L 127.62 15.498 Q 127.62 16.992 126.972 18.684 L 126.972 18.684 L 126.972 18.684 Q 128.376 16.848 129.096 16.056 L 129.096 16.056 L 129.096 16.056 Q 130.968 13.968 132.768 13.968 L 132.768 13.968 L 132.768 13.968 Q 134.532 13.968 134.856 15.48 L 134.856 15.48 L 134.856 15.48 Q 134.892 15.696 134.892 16.146 L 134.892 16.146 L 134.892 16.146 Q 134.892 16.596 134.55 17.352 L 134.55 17.352 L 134.55 17.352 Q 134.208 18.108 132.948 19.836 L 132.948 19.836 L 132.948 19.836 Q 131.688 21.564 131.49 22.014 L 131.49 22.014 L 131.49 22.014 Q 131.292 22.464 131.364 22.68 L 131.364 22.68 L 131.364 22.68 Q 131.436 22.896 131.688 22.932 L 131.688 22.932 L 131.688 22.932 Q 132.12 23.004 133.164 22.356 L 133.164 22.356 L 133.164 22.356 Q 134.64 21.312 136.98 19.152 L 136.98 19.152 L 136.98 19.152 Q 137.376 18.756 137.376 19.224 L 137.376 19.224 L 137.376 19.224 Q 137.376 19.404 137.196 19.584 L 137.196 19.584 L 137.196 19.584 Q 133.704 22.824 132.012 23.616 L 132.012 23.616 L 132.012 23.616 Q 130.032 24.624 128.916 23.94 L 128.916 23.94 L 128.916 23.94 Q 128.232 23.508 128.232 22.734 L 128.232 22.734 L 128.232 22.734 Q 128.232 21.96 128.52 21.168 L 128.52 21.168 L 128.52 21.168 Q 129.168 19.332 132.228 15.876 Z  M 145.152 18.324 L 145.152 18.324 L 145.152 18.324 Q 147.06 17.28 147.06 16.2 L 147.06 16.2 L 147.06 16.2 Q 147.06 15.12 145.764 15.12 L 145.764 15.12 L 145.764 15.12 Q 145.152 15.12 144.468 15.444 L 144.468 15.444 L 144.468 15.444 Q 142.956 16.128 141.552 17.82 L 141.552 17.82 L 141.552 17.82 Q 139.824 19.908 139.824 21.708 L 139.824 21.708 L 139.824 21.708 Q 139.824 22.392 140.202 22.986 L 140.202 22.986 L 140.202 22.986 Q 140.58 23.58 141.552 23.58 L 141.552 23.58 L 141.552 23.58 Q 143.244 23.58 145.836 21.798 L 145.836 21.798 L 145.836 21.798 Q 148.428 20.016 150.3 18.216 L 150.3 18.216 L 150.3 18.216 Q 150.732 17.784 150.732 18.18 L 150.732 18.18 L 150.732 18.18 Q 150.732 18.432 150.516 18.612 L 150.516 18.612 L 150.516 18.612 Q 149.184 19.836 148.734 20.25 L 148.734 20.25 L 148.734 20.25 Q 148.284 20.664 146.952 21.726 L 146.952 21.726 L 146.952 21.726 Q 145.62 22.788 144.792 23.22 L 144.792 23.22 L 144.792 23.22 Q 142.236 24.552 140.454 24.552 L 140.454 24.552 L 140.454 24.552 Q 138.672 24.552 137.646 23.742 L 137.646 23.742 L 137.646 23.742 Q 136.62 22.932 136.62 21.492 L 136.62 21.492 L 136.62 21.492 Q 136.62 18.432 139.356 16.218 L 139.356 16.218 L 139.356 16.218 Q 142.092 14.004 145.08 14.004 L 145.08 14.004 L 145.08 14.004 Q 147.096 14.004 147.78 14.868 L 147.78 14.868 L 147.78 14.868 Q 148.068 15.3 148.068 15.786 L 148.068 15.786 L 148.068 15.786 Q 148.068 16.272 147.744 16.848 L 147.744 16.848 L 147.744 16.848 Q 147.096 17.964 145.314 18.81 L 145.314 18.81 L 145.314 18.81 Q 143.532 19.656 141.948 19.656 L 141.948 19.656 L 141.948 19.656 Q 141.336 19.656 141.282 19.548 L 141.282 19.548 L 141.282 19.548 Q 141.228 19.44 141.372 19.386 L 141.372 19.386 L 141.372 19.386 Q 141.516 19.332 141.768 19.332 L 141.768 19.332 L 141.768 19.332 Q 143.208 19.332 145.152 18.324 Z  M 156.348 12.96 L 156.348 12.96 L 156.348 12.96 Q 155.952 12.636 156.024 12.024 L 156.024 12.024 L 156.024 12.024 Q 156.096 11.412 156.672 10.728 L 156.672 10.728 L 156.672 10.728 Q 157.248 10.044 158.22 10.044 L 158.22 10.044 L 158.22 10.044 Q 158.508 10.044 158.832 10.314 L 158.832 10.314 L 158.832 10.314 Q 159.156 10.584 159.084 11.214 L 159.084 11.214 L 159.084 11.214 Q 159.012 11.844 158.508 12.402 L 158.508 12.402 L 158.508 12.402 Q 158.004 12.96 157.374 13.122 L 157.374 13.122 L 157.374 13.122 Q 156.744 13.284 156.348 12.96 Z  M 155.88 14.868 L 155.88 14.868 L 155.88 14.868 Q 154.404 16.38 153.414 18.702 L 153.414 18.702 L 153.414 18.702 Q 152.424 21.024 152.424 21.96 L 152.424 21.96 L 152.424 21.96 Q 152.424 22.896 153.162 22.896 L 153.162 22.896 L 153.162 22.896 Q 153.9 22.896 155.61 21.816 L 155.61 21.816 L 155.61 21.816 Q 157.32 20.736 159.516 18.756 L 159.516 18.756 L 159.516 18.756 Q 159.984 18.324 159.984 18.864 L 159.984 18.864 L 159.984 18.864 Q 159.984 18.936 159.912 19.008 L 159.912 19.008 L 159.912 19.008 Q 158.184 20.52 156.996 21.492 L 156.996 21.492 L 156.996 21.492 Q 155.808 22.464 154.17 23.346 L 154.17 23.346 L 154.17 23.346 Q 152.532 24.228 151.488 24.228 L 151.488 24.228 L 151.488 24.228 Q 150.192 24.228 149.562 23.652 L 149.562 23.652 L 149.562 23.652 Q 148.932 23.076 148.932 22.392 L 148.932 22.392 L 148.932 22.392 Q 148.932 21.096 149.4 20.34 L 149.4 20.34 L 149.4 20.34 Q 149.868 19.584 150.984 18.252 L 150.984 18.252 L 150.984 18.252 Q 150.588 18.576 149.742 19.332 L 149.742 19.332 L 149.742 19.332 Q 148.896 20.088 148.572 20.34 L 148.572 20.34 L 148.572 20.34 Q 148.248 20.592 148.248 20.196 L 148.248 20.196 L 148.248 20.196 Q 148.248 19.944 148.824 19.476 L 148.824 19.476 L 148.824 19.476 Q 149.4 19.008 151.326 17.1 L 151.326 17.1 L 151.326 17.1 Q 153.252 15.192 153.954 14.832 L 153.954 14.832 L 153.954 14.832 Q 154.656 14.472 155.106 14.472 L 155.106 14.472 L 155.106 14.472 Q 155.556 14.472 155.772 14.598 L 155.772 14.598 L 155.772 14.598 Q 155.988 14.724 155.88 14.868 Z  M 168.768 16.74 L 168.768 16.74 L 168.768 16.74 Q 167.184 18.576 166.194 20.106 L 166.194 20.106 L 166.194 20.106 Q 165.204 21.636 165.204 22.266 L 165.204 22.266 L 165.204 22.266 Q 165.204 22.896 165.942 22.896 L 165.942 22.896 L 165.942 22.896 Q 166.68 22.896 168.966 21.42 L 168.966 21.42 L 168.966 21.42 Q 171.252 19.944 173.196 18.108 L 173.196 18.108 L 173.196 18.108 Q 173.376 17.928 173.52 17.964 L 173.52 17.964 L 173.52 17.964 Q 173.664 18 173.664 18.144 L 173.664 18.144 L 173.664 18.144 Q 173.664 18.288 173.52 18.468 L 173.52 18.468 L 173.52 18.468 Q 168.876 22.716 166.428 23.796 L 166.428 23.796 L 166.428 23.796 Q 165.348 24.228 164.88 24.228 L 164.88 24.228 L 164.88 24.228 Q 163.152 24.228 162.522 23.652 L 162.522 23.652 L 162.522 23.652 Q 161.892 23.076 161.892 22.392 L 161.892 22.392 L 161.892 22.392 Q 161.892 21.024 162.432 20.304 L 162.432 20.304 L 162.432 20.304 Q 164.196 17.82 165.24 16.092 L 165.24 16.092 L 165.24 16.092 Q 165.564 15.588 165.114 15.39 L 165.114 15.39 L 165.114 15.39 Q 164.664 15.192 163.998 15.192 L 163.998 15.192 L 163.998 15.192 Q 163.332 15.192 163.296 15.156 L 163.296 15.156 L 163.296 15.156 Q 160.884 18.396 158.508 20.268 L 158.508 20.268 L 158.508 20.268 Q 158.22 20.52 158.184 20.268 L 158.184 20.268 L 158.184 20.268 Q 158.184 19.98 158.58 19.584 L 158.58 19.584 L 158.58 19.584 Q 161.1 17.424 162.72 15.012 L 162.72 15.012 L 162.72 15.012 Q 162.396 14.796 162.396 14.418 L 162.396 14.418 L 162.396 14.418 Q 162.396 14.04 162.45 13.5 L 162.45 13.5 L 162.45 13.5 Q 162.504 12.96 163.008 12.06 L 163.008 12.06 L 163.008 12.06 Q 163.872 10.548 164.808 10.548 L 164.808 10.548 L 164.808 10.548 Q 165.6 10.548 165.6 11.412 L 165.6 11.412 L 165.6 11.412 Q 165.6 12.6 164.484 14.004 L 164.484 14.004 L 164.484 14.004 Q 163.944 14.652 163.476 14.94 L 163.476 14.94 L 163.476 14.94 Q 164.808 14.508 167.364 14.508 L 167.364 14.508 L 167.364 14.508 Q 168.624 14.508 169.164 15.444 L 169.164 15.444 L 169.164 15.444 Q 169.236 15.588 169.236 15.876 L 169.236 15.876 L 169.236 15.876 Q 169.236 16.164 168.768 16.74 Z  M 185.076 18.396 L 185.076 18.396 L 185.076 18.396 Q 184.68 18.864 184.266 19.404 L 184.266 19.404 L 184.266 19.404 Q 183.852 19.944 183.222 20.88 L 183.222 20.88 L 183.222 20.88 Q 182.592 21.816 182.592 22.464 L 182.592 22.464 L 182.592 22.464 Q 182.592 23.112 183.15 23.112 L 183.15 23.112 L 183.15 23.112 Q 183.708 23.112 184.968 22.428 L 184.968 22.428 L 184.968 22.428 Q 187.488 20.988 190.548 18.108 L 190.548 18.108 L 190.548 18.108 Q 190.908 17.748 191.016 18 L 191.016 18 L 191.016 18 Q 191.016 18.036 191.016 18.144 L 191.016 18.144 L 191.016 18.144 Q 191.016 18.252 190.872 18.396 L 190.872 18.396 L 190.872 18.396 Q 184.68 24.228 181.872 24.228 L 181.872 24.228 L 181.872 24.228 Q 181.044 24.228 180.486 23.67 L 180.486 23.67 L 180.486 23.67 Q 179.928 23.112 179.928 22.356 L 179.928 22.356 L 179.928 22.356 Q 179.928 21.6 180.576 20.052 L 180.576 20.052 L 180.576 20.052 Q 178.956 22.068 177.102 23.166 L 177.102 23.166 L 177.102 23.166 Q 175.248 24.264 174.204 24.264 L 174.204 24.264 L 174.204 24.264 Q 173.16 24.264 172.422 23.634 L 172.422 23.634 L 172.422 23.634 Q 171.684 23.004 171.684 22.068 L 171.684 22.068 L 171.684 22.068 Q 171.684 19.404 174.06 16.848 L 174.06 16.848 L 174.06 16.848 Q 175.86 14.94 178.524 14.148 L 178.524 14.148 L 178.524 14.148 Q 179.712 13.752 180.846 13.752 L 180.846 13.752 L 180.846 13.752 Q 181.98 13.752 183.042 14.382 L 183.042 14.382 L 183.042 14.382 Q 184.104 15.012 184.392 15.876 L 184.392 15.876 L 184.392 15.876 Q 185.472 15.876 185.94 16.668 L 185.94 16.668 L 185.94 16.668 Q 186.012 16.776 186.012 17.028 L 186.012 17.028 L 186.012 17.028 Q 186.012 17.28 185.742 17.604 L 185.742 17.604 L 185.742 17.604 Q 185.472 17.928 185.076 18.396 Z  M 182.448 14.832 L 182.448 14.832 L 182.448 14.832 Q 181.692 14.832 180.648 15.3 L 180.648 15.3 L 180.648 15.3 Q 178.812 16.092 177.156 18.036 L 177.156 18.036 L 177.156 18.036 Q 174.528 21.132 174.528 22.572 L 174.528 22.572 L 174.528 22.572 Q 174.528 23.328 175.14 23.328 L 175.14 23.328 L 175.14 23.328 Q 175.644 23.328 176.814 22.68 L 176.814 22.68 L 176.814 22.68 Q 177.984 22.032 179.892 20.124 L 179.892 20.124 L 179.892 20.124 Q 180 20.016 180.72 19.332 L 180.72 19.332 L 180.72 19.332 Q 181.44 18.648 181.944 18.144 L 181.944 18.144 L 181.944 18.144 Q 183.636 16.38 183.636 15.606 L 183.636 15.606 L 183.636 15.606 Q 183.636 14.832 182.448 14.832 Z  M 0 25.272 L 0 25.272 L 0 25.272 Q 0 23.544 5.184 15.984 L 5.184 15.984 L 5.184 15.984 Q 5.004 15.336 5.004 14.796 L 5.004 14.796 L 5.004 14.796 Q 5.004 14.256 5.904 13.536 L 5.904 13.536 L 5.904 13.536 Q 6.804 12.816 7.272 12.816 L 7.272 12.816 L 7.272 12.816 Q 7.344 12.816 7.38 12.816 L 7.38 12.816 L 7.38 12.816 Q 9.504 9.9 11.16 7.884 L 11.16 7.884 L 11.16 7.884 Q 12.816 5.868 13.104 5.868 L 13.104 5.868 L 13.104 5.868 Q 13.392 5.868 13.554 6.102 L 13.554 6.102 L 13.554 6.102 Q 13.716 6.336 13.716 6.588 L 13.716 6.588 L 13.716 6.588 Q 10.836 10.152 7.812 14.292 L 7.812 14.292 L 7.884 14.544 L 9.18 14.436 L 9.18 14.436 Q 11.916 14.256 15.12 13.194 L 15.12 13.194 L 15.12 13.194 Q 18.324 12.132 20.376 10.764 L 20.376 10.764 L 20.376 10.764 Q 24.624 7.884 24.624 5.472 L 24.624 5.472 L 24.624 5.472 Q 24.624 4.428 23.22 3.708 L 23.22 3.708 L 23.22 3.708 Q 21.816 2.988 18.828 2.988 L 18.828 2.988 L 18.828 2.988 Q 15.84 2.988 10.71 4.446 L 10.71 4.446 L 10.71 4.446 Q 5.58 5.904 3.564 7.632 L 3.564 7.632 L 3.564 7.632 Q 2.988 8.136 3.15 8.424 L 3.15 8.424 L 3.15 8.424 Q 3.312 8.712 3.204 8.748 L 3.204 8.748 L 3.204 8.748 Q 3.096 8.784 2.88 8.64 L 2.88 8.64 L 2.88 8.64 Q 2.124 8.208 1.926 7.56 L 1.926 7.56 L 1.926 7.56 Q 1.728 6.912 1.728 6.588 L 1.728 6.588 L 1.728 6.588 Q 1.728 6.264 1.908 6.12 L 1.908 6.12 L 1.908 6.12 Q 3.096 4.392 7.218 2.862 L 7.218 2.862 L 7.218 2.862 Q 11.34 1.332 14.832 0.846 L 14.832 0.846 L 14.832 0.846 Q 18.324 0.36 19.998 0.36 L 19.998 0.36 L 19.998 0.36 Q 21.672 0.36 22.77 0.576 L 22.77 0.576 L 22.77 0.576 Q 23.868 0.792 24.732 1.548 L 24.732 1.548 L 24.732 1.548 Q 26.064 2.664 26.064 4.68 L 26.064 4.68 L 26.064 4.68 Q 26.064 6.66 24.588 8.352 L 24.588 8.352 L 24.588 8.352 Q 23.112 10.044 20.79 11.394 L 20.79 11.394 L 20.79 11.394 Q 18.468 12.744 15.156 13.824 L 15.156 13.824 L 15.156 13.824 Q 11.304 15.084 8.064 15.084 L 8.064 15.084 L 8.064 15.084 Q 9.216 17.964 12.69 20.898 L 12.69 20.898 L 12.69 20.898 Q 16.164 23.832 18.432 23.832 L 18.432 23.832 L 18.432 23.832 Q 19.332 23.832 20.016 23.4 L 20.016 23.4 L 20.016 23.4 Q 20.7 22.968 20.808 22.32 L 20.808 22.32 L 20.808 22.32 Q 20.808 22.14 20.988 22.212 L 20.988 22.212 L 20.988 22.212 Q 21.06 22.32 21.06 22.392 L 21.06 22.392 L 21.06 22.392 Q 20.772 24.804 16.956 24.804 L 16.956 24.804 L 16.956 24.804 Q 14.76 24.804 12.384 23.652 L 12.384 23.652 L 12.384 23.652 Q 10.008 22.5 8.334 20.772 L 8.334 20.772 L 8.334 20.772 Q 6.66 19.044 5.688 17.208 L 5.688 17.208 L 5.688 17.208 Q 1.872 22.752 0.972 25.02 L 0.972 25.02 L 0.972 25.02 Q 0.756 25.596 0.378 25.596 L 0.378 25.596 L 0.378 25.596 Q 0 25.596 0 25.272 Z  M 29.736 18.396 L 29.736 18.396 L 29.736 18.396 Q 29.376 18.936 28.764 19.764 L 28.764 19.764 L 28.764 19.764 Q 28.152 20.592 27.612 21.348 L 27.612 21.348 L 27.612 21.348 Q 27.072 22.104 27.072 22.482 L 27.072 22.482 L 27.072 22.482 Q 27.072 22.86 27.432 22.86 L 27.432 22.86 L 27.432 22.86 Q 28.08 22.86 29.34 21.708 L 29.34 21.708 L 30.492 20.592 L 30.492 20.592 Q 32.256 18.684 33.588 16.92 L 33.588 16.92 L 34.92 15.3 L 34.92 15.3 Q 35.532 14.616 36.216 14.58 L 36.216 14.58 L 36.216 14.58 Q 37.26 14.58 38.16 15.372 L 38.16 15.372 L 38.16 15.372 Q 37.944 15.696 37.458 16.308 L 37.458 16.308 L 37.458 16.308 Q 36.972 16.92 36.486 17.55 L 36.486 17.55 L 36.486 17.55 Q 36 18.18 35.37 19.008 L 35.37 19.008 L 35.37 19.008 Q 34.74 19.836 34.272 20.556 L 34.272 20.556 L 34.272 20.556 Q 33.804 21.276 33.318 22.086 L 33.318 22.086 L 33.318 22.086 Q 32.832 22.896 32.616 23.472 L 32.616 23.472 L 32.616 23.472 Q 32.076 25.056 32.652 25.452 L 32.652 25.452 L 32.652 25.452 Q 32.832 25.632 32.58 25.632 L 32.58 25.632 L 32.58 25.632 Q 32.508 25.632 32.436 25.596 L 32.436 25.596 L 32.436 25.596 Q 31.068 25.128 31.068 23.364 L 31.068 23.364 L 31.068 23.364 Q 31.068 21.6 32.22 19.188 L 32.22 19.188 L 32.22 19.188 Q 28.368 24.156 25.956 24.156 L 25.956 24.156 L 25.956 24.156 Q 24.12 24.156 24.12 22.428 L 24.12 22.428 L 24.12 22.428 Q 24.12 21.816 24.372 20.988 L 24.372 20.988 L 24.372 20.988 Q 24.912 19.368 28.044 15.876 L 28.044 15.876 L 28.044 15.876 Q 28.44 15.408 28.44 15.084 L 28.44 15.084 L 28.44 15.084 Q 28.44 14.76 28.008 14.76 L 28.008 14.76 L 28.008 14.76 Q 27.576 14.76 26.712 15.408 L 26.712 15.408 L 26.712 15.408 Q 25.848 16.056 24.3 17.514 L 24.3 17.514 L 24.3 17.514 Q 22.752 18.972 22.41 19.26 L 22.41 19.26 L 22.41 19.26 Q 22.068 19.548 22.068 19.116 L 22.068 19.116 L 22.068 19.116 Q 22.068 18.9 22.752 18.342 L 22.752 18.342 L 22.752 18.342 Q 23.436 17.784 24.624 16.542 L 24.624 16.542 L 24.624 16.542 Q 25.812 15.3 26.694 14.634 L 26.694 14.634 L 26.694 14.634 Q 27.576 13.968 28.728 13.968 L 28.728 13.968 L 28.728 13.968 Q 30.024 13.968 30.492 14.94 L 30.492 14.94 L 30.492 14.94 Q 30.672 15.3 30.672 15.876 L 30.672 15.876 L 30.672 15.876 Q 30.672 16.452 30.384 17.154 L 30.384 17.154 L 30.384 17.154 Q 30.096 17.856 29.736 18.396 Z  M 45.432 12.96 L 45.432 12.96 L 45.432 12.96 Q 45.036 12.636 45.108 12.024 L 45.108 12.024 L 45.108 12.024 Q 45.18 11.412 45.756 10.728 L 45.756 10.728 L 45.756 10.728 Q 46.332 10.044 47.304 10.044 L 47.304 10.044 L 47.304 10.044 Q 47.592 10.044 47.916 10.314 L 47.916 10.314 L 47.916 10.314 Q 48.24 10.584 48.168 11.214 L 48.168 11.214 L 48.168 11.214 Q 48.096 11.844 47.592 12.402 L 47.592 12.402 L 47.592 12.402 Q 47.088 12.96 46.458 13.122 L 46.458 13.122 L 46.458 13.122 Q 45.828 13.284 45.432 12.96 Z  M 44.964 14.868 L 44.964 14.868 L 44.964 14.868 Q 43.488 16.38 42.498 18.702 L 42.498 18.702 L 42.498 18.702 Q 41.508 21.024 41.508 21.96 L 41.508 21.96 L 41.508 21.96 Q 41.508 22.896 42.246 22.896 L 42.246 22.896 L 42.246 22.896 Q 42.984 22.896 44.694 21.816 L 44.694 21.816 L 44.694 21.816 Q 46.404 20.736 48.6 18.756 L 48.6 18.756 L 48.6 18.756 Q 49.068 18.324 49.068 18.864 L 49.068 18.864 L 49.068 18.864 Q 49.068 18.936 48.996 19.008 L 48.996 19.008 L 48.996 19.008 Q 47.268 20.52 46.08 21.492 L 46.08 21.492 L 46.08 21.492 Q 44.892 22.464 43.254 23.346 L 43.254 23.346 L 43.254 23.346 Q 41.616 24.228 40.572 24.228 L 40.572 24.228 L 40.572 24.228 Q 39.276 24.228 38.646 23.652 L 38.646 23.652 L 38.646 23.652 Q 38.016 23.076 38.016 22.392 L 38.016 22.392 L 38.016 22.392 Q 38.016 21.096 38.484 20.34 L 38.484 20.34 L 38.484 20.34 Q 38.952 19.584 40.068 18.252 L 40.068 18.252 L 40.068 18.252 Q 39.672 18.576 38.826 19.332 L 38.826 19.332 L 38.826 19.332 Q 37.98 20.088 37.656 20.34 L 37.656 20.34 L 37.656 20.34 Q 37.332 20.592 37.332 20.196 L 37.332 20.196 L 37.332 20.196 Q 37.332 19.944 37.908 19.476 L 37.908 19.476 L 37.908 19.476 Q 38.484 19.008 40.41 17.1 L 40.41 17.1 L 40.41 17.1 Q 42.336 15.192 43.038 14.832 L 43.038 14.832 L 43.038 14.832 Q 43.74 14.472 44.19 14.472 L 44.19 14.472 L 44.19 14.472 Q 44.64 14.472 44.856 14.598 L 44.856 14.598 L 44.856 14.598 Q 45.072 14.724 44.964 14.868 Z " fill-rule="evenodd" fill="none" /></g></svg>
