<?xml version="1.0" standalone="no"?><!-- Generator: Gravit.io --><svg xmlns="http://www.w3.org/2000/svg" xmlns:xlink="http://www.w3.org/1999/xlink" style="isolation:isolate" viewBox="0 0 321.163 49.45" width="321.163" height="49.45"><defs><clipPath id="_clipPath_ZKEhDWgRs1tJHC6Den2Vbz4Z22uJMlSo"><rect width="321.163" height="49.45"/></clipPath></defs><g clip-path="url(#_clipPath_ZKEhDWgRs1tJHC6Den2Vbz4Z22uJMlSo)"><path d=" M 41.434 28.231 L 39.954 29.875 L 41.05 29.875 L 41.05 29.875 Q 42.803 29.875 43.68 29.765 L 43.68 29.765 L 43.68 29.765 Q 42.639 28.779 41.434 28.231 L 41.434 28.231 Z " fill="none" vector-effect="non-scaling-stroke" stroke-width="1.4" stroke="rgb(0,0,0)" stroke-linejoin="miter" stroke-linecap="square" stroke-miterlimit="3"/><path d=" M 38.421 29.655 L 40.174 27.793 L 40.174 27.793 Q 39.187 27.519 38.503 27.519 L 38.503 27.519 L 38.503 27.519 Q 37.818 27.519 37.325 27.875 L 37.325 27.875 L 37.325 27.875 Q 36.832 28.231 36.832 28.615 L 36.832 28.615 L 36.832 28.615 Q 36.832 29.381 38.421 29.655 L 38.421 29.655 Z " fill="none" vector-effect="non-scaling-stroke" stroke-width="1.4" stroke="rgb(0,0,0)" stroke-linejoin="miter" stroke-linecap="square" stroke-miterlimit="3"/><path d=" M 38.804 11.523 L 38.804 11.523 Q 37.215 11.906 36.038 13.084 L 36.038 13.084 L 36.038 13.084 Q 34.86 14.262 34.86 14.809 L 34.86 14.809 L 34.86 14.809 Q 34.86 15.357 35.188 15.357 L 35.188 15.357 L 35.188 15.357 Q 36.558 15.357 37.544 14.262 L 37.544 14.262 L 37.544 14.262 Q 38.53 13.166 38.804 11.523 L 38.804 11.523 Z " fill="none" vector-effect="non-scaling-stroke" stroke-width="1.4" stroke="rgb(0,0,0)" stroke-linejoin="miter" stroke-linecap="square" stroke-miterlimit="3"/><path d=" M 13.659 35.243 L 13.659 35.243 L 13.659 35.243 Q 13.659 35.846 14.618 35.846 L 14.618 35.846 L 14.618 35.846 Q 15.576 35.846 16.426 34.558 L 16.426 34.558 L 16.426 34.558 Q 17.275 33.271 17.275 31.682 L 17.275 31.682 L 17.275 31.682 Q 17.275 31.244 17.22 31.025 L 17.22 31.025 L 17.22 31.025 Q 13.659 33.654 13.659 35.243 Z " fill="none" vector-effect="non-scaling-stroke" stroke-width="1.4" stroke="rgb(0,0,0)" stroke-linejoin="miter" stroke-linecap="square" stroke-miterlimit="3"/><path d=" M 40.064 11.358 L 40.064 11.358 L 39.681 11.413 L 39.681 11.413 Q 39.297 13.714 37.873 15.248 L 37.873 15.248 L 37.873 15.248 Q 36.448 16.782 34.367 16.782 L 34.367 16.782 L 34.367 16.782 Q 33.49 16.782 33.49 15.768 L 33.49 15.768 L 33.49 15.768 Q 33.49 14.755 35.106 13.029 L 35.106 13.029 L 35.106 13.029 Q 36.722 11.303 38.914 10.756 L 38.914 10.756 L 38.914 10.482 L 38.914 10.482 Q 38.914 9.222 38.037 7.797 L 38.037 7.797 L 38.037 7.797 Q 33.216 9.824 30.368 13.139 L 30.368 13.139 L 30.368 13.139 Q 27.519 16.453 27.519 19.137 L 27.519 19.137 L 27.519 19.137 Q 27.519 22.15 30.998 22.15 L 30.998 22.15 L 30.998 22.15 Q 34.476 22.15 38.448 18.781 L 38.448 18.781 L 38.448 18.781 Q 42.42 15.412 42.42 13.002 L 42.42 13.002 L 42.42 13.002 Q 42.42 11.358 40.064 11.358 Z " fill="none" vector-effect="non-scaling-stroke" stroke-width="1.4" stroke="rgb(0,0,0)" stroke-linejoin="miter" stroke-linecap="square" stroke-miterlimit="3"/><path d=" M 53.76 26.177 L 53.76 26.177 L 53.76 26.177 Q 57.704 23.629 59.84 20.397 L 59.84 20.397 L 59.84 20.397 Q 61.977 17.165 61.977 14.015 L 61.977 14.015 L 61.977 14.015 Q 61.977 10.865 59.402 8.674 L 59.402 8.674 L 59.402 8.674 Q 56.718 10.865 54.061 13.686 L 54.061 13.686 L 54.061 13.686 Q 51.404 16.508 47.35 21.329 L 47.35 21.329 L 47.35 21.329 Q 43.296 26.149 41.981 27.628 L 41.981 27.628 L 41.981 27.628 Q 43.68 28.286 45.104 29.546 L 45.104 29.546 L 45.104 29.546 Q 49.815 28.724 53.76 26.177 Z " fill="none" vector-effect="non-scaling-stroke" stroke-width="1.4" stroke="rgb(0,0,0)" stroke-linejoin="miter" stroke-linecap="square" stroke-miterlimit="3"/><path d=" M 71.399 2.1 L 71.399 2.1 L 71.399 2.1 Q 71.892 2.1 72.002 2.483 L 72.002 2.483 L 72.002 2.483 Q 72.002 2.977 70.961 3.141 L 70.961 3.141 L 70.961 3.141 Q 65.647 3.853 60.552 7.743 L 60.552 7.743 L 60.552 7.743 Q 63.565 10.043 63.565 13.823 L 63.565 13.823 L 63.565 13.823 Q 63.565 18.863 58.498 23.712 L 58.498 23.712 L 58.498 23.712 Q 53.431 28.56 45.652 30.094 L 45.652 30.094 L 45.652 30.094 Q 47.076 31.463 48.692 33.791 L 48.692 33.791 L 48.692 33.791 Q 50.308 36.12 51.65 38.119 L 51.65 38.119 L 51.65 38.119 Q 52.993 40.119 54.636 42.036 L 54.636 42.036 L 54.636 42.036 Q 58.252 46.145 63.62 46.145 L 63.62 46.145 L 63.62 46.145 Q 65.373 46.145 66.387 45.761 L 66.387 45.761 L 66.387 45.761 Q 67.4 45.378 68.003 45.104 L 68.003 45.104 L 68.003 45.104 Q 69.427 44.447 69.728 44.447 L 69.728 44.447 L 69.728 44.447 Q 70.03 44.447 70.03 44.666 L 70.03 44.666 L 70.03 44.666 Q 70.03 45.049 69.044 45.624 L 69.044 45.624 L 69.044 45.624 Q 68.058 46.2 67.181 46.473 L 67.181 46.473 L 67.181 46.473 Q 64.004 47.35 62.689 47.35 L 62.689 47.35 L 62.689 47.35 Q 57.266 47.35 53.431 42.858 L 53.431 42.858 L 53.431 42.858 Q 51.678 40.831 50.308 38.722 L 50.308 38.722 L 50.308 38.722 Q 48.939 36.613 47.323 34.148 L 47.323 34.148 L 47.323 34.148 Q 45.707 31.682 44.337 30.313 L 44.337 30.313 L 44.337 30.313 Q 42.2 30.641 39.9 30.641 L 39.9 30.641 L 39.242 30.641 L 39.242 30.641 Q 33.052 37.27 26.862 40.968 L 26.862 40.968 L 26.862 40.968 Q 20.671 44.666 13.33 44.666 L 13.33 44.666 L 13.33 44.666 Q 7.743 44.666 4.921 42.392 L 4.921 42.392 L 4.921 42.392 Q 2.1 40.119 2.1 36.585 L 2.1 36.585 L 2.1 36.585 Q 2.1 33.052 5.223 30.066 L 5.223 30.066 L 5.223 30.066 Q 8.345 27.081 13.056 27.081 L 13.056 27.081 L 13.056 27.081 Q 16.836 27.081 17.822 29.71 L 17.822 29.71 L 17.822 29.71 Q 23.027 26.478 28.724 26.478 L 28.724 26.478 L 28.724 26.478 Q 29.436 26.642 29.436 27.026 L 29.436 27.026 L 29.436 27.026 Q 29.436 27.19 29.162 27.19 L 29.162 27.19 L 29.162 27.19 Q 23.191 27.19 18.042 30.477 L 18.042 30.477 L 18.042 30.477 Q 18.096 30.696 18.096 31.244 L 18.096 31.244 L 18.096 31.244 Q 18.096 33.216 16.891 34.997 L 16.891 34.997 L 16.891 34.997 Q 15.686 36.777 14.097 36.777 L 14.097 36.777 L 14.097 36.777 Q 12.509 36.777 12.509 35.572 L 12.509 35.572 L 12.509 35.572 Q 12.509 34.531 13.741 33.052 L 13.741 33.052 L 13.741 33.052 Q 14.974 31.573 17.001 30.203 L 17.001 30.203 L 17.001 30.203 Q 16.015 27.738 12.481 27.738 L 12.481 27.738 L 12.481 27.738 Q 8.948 27.738 6.483 30.45 L 6.483 30.45 L 6.483 30.45 Q 4.017 33.161 4.017 36.394 L 4.017 36.394 L 4.017 36.394 Q 4.017 39.626 6.51 41.735 L 6.51 41.735 L 6.51 41.735 Q 9.003 43.844 14.672 43.844 L 14.672 43.844 L 14.672 43.844 Q 20.342 43.844 26.04 40.311 L 26.04 40.311 L 26.04 40.311 Q 31.737 36.777 37.708 30.477 L 37.708 30.477 L 37.708 30.477 Q 35.024 29.875 35.024 28.505 L 35.024 28.505 L 35.024 28.505 Q 35.024 27.848 35.928 27.382 L 35.928 27.382 L 35.928 27.382 Q 36.832 26.916 38.201 26.916 L 38.201 26.916 L 38.201 26.916 Q 39.571 26.916 40.667 27.19 L 40.667 27.19 L 40.667 27.19 Q 41.927 25.766 46.09 20.918 L 46.09 20.918 L 46.09 20.918 Q 50.253 16.069 52.993 13.193 L 52.993 13.193 L 52.993 13.193 Q 55.732 10.317 58.526 8.071 L 58.526 8.071 L 58.526 8.071 Q 55.074 5.77 49.295 5.77 L 49.295 5.77 L 49.295 5.77 Q 43.515 5.77 38.968 7.414 L 38.968 7.414 L 38.968 7.414 Q 39.79 8.729 39.79 9.55 L 39.79 9.55 L 39.79 9.55 Q 39.79 10.372 39.735 10.591 L 39.735 10.591 L 39.735 10.591 Q 39.954 10.536 40.447 10.536 L 40.447 10.536 L 40.447 10.536 Q 43.954 10.536 43.954 12.673 L 43.954 12.673 L 43.954 12.673 Q 43.954 14.426 41.762 16.891 L 41.762 16.891 L 41.762 16.891 Q 39.571 19.356 36.339 21.219 L 36.339 21.219 L 36.339 21.219 Q 33.107 23.082 30.751 23.082 L 30.751 23.082 L 30.751 23.082 Q 28.395 23.082 27.3 22.095 L 27.3 22.095 L 27.3 22.095 Q 26.204 21.109 26.204 19.466 L 26.204 19.466 L 26.204 19.466 Q 26.204 16.562 29.299 12.974 L 29.299 12.974 L 29.299 12.974 Q 32.394 9.386 37.599 7.195 L 37.599 7.195 L 37.599 7.195 Q 34.914 4.127 29.327 4.127 L 29.327 4.127 L 29.327 4.127 Q 25.547 4.127 22.232 5.305 L 22.232 5.305 L 22.232 5.305 Q 18.918 6.483 16.836 8.181 L 16.836 8.181 L 16.836 8.181 Q 12.618 11.687 11.139 14.481 L 11.139 14.481 L 10.482 15.686 L 10.482 15.686 Q 10.208 16.124 9.879 16.124 L 9.879 16.124 L 9.879 16.124 Q 9.55 16.124 9.55 15.522 L 9.55 15.522 L 9.55 15.522 Q 10.317 13.769 12.18 11.468 L 12.18 11.468 L 12.18 11.468 Q 14.042 9.167 16.124 7.578 L 16.124 7.578 L 16.124 7.578 Q 18.206 5.99 21.849 4.675 L 21.849 4.675 L 21.849 4.675 Q 25.492 3.36 29.71 3.36 L 29.71 3.36 L 29.71 3.36 Q 35.681 3.36 38.53 6.811 L 38.53 6.811 L 38.53 6.811 Q 43.734 4.894 49.897 4.894 L 49.897 4.894 L 49.897 4.894 Q 56.06 4.894 59.676 7.195 L 59.676 7.195 L 59.676 7.195 Q 65.757 2.593 71.399 2.1 Z " fill="none" vector-effect="non-scaling-stroke" stroke-width="1.4" stroke="rgb(0,0,0)" stroke-linejoin="miter" stroke-linecap="square" stroke-miterlimit="3"/><path d=" M 63.675 40.776 L 63.675 40.776 L 63.675 40.776 Q 63.675 39.9 64.278 38.914 L 64.278 38.914 L 64.278 38.914 Q 64.278 38.859 64.278 38.804 L 64.278 38.804 L 64.278 38.804 Q 64.278 38.749 64.223 38.804 L 64.223 38.804 L 64.223 38.804 Q 60.552 41.927 58.142 41.927 L 58.142 41.927 L 58.142 41.927 Q 56.553 41.927 56.553 40.831 L 56.553 40.831 L 56.553 40.831 Q 56.553 39.735 58.087 37.681 L 58.087 37.681 L 58.087 37.681 Q 59.621 35.627 61.182 34.038 L 61.182 34.038 L 61.182 34.038 Q 62.744 32.449 62.634 32.668 L 62.634 32.668 L 62.634 32.668 Q 62.908 32.394 63.292 32.394 L 63.292 32.394 L 63.292 32.394 Q 63.675 32.394 63.675 32.751 L 63.675 32.751 L 63.675 32.751 Q 63.675 33.107 63.346 33.435 L 63.346 33.435 L 63.346 33.435 Q 63.018 33.764 62.114 34.778 L 62.114 34.778 L 62.114 34.778 Q 61.21 35.791 60.689 36.394 L 60.689 36.394 L 60.689 36.394 Q 60.169 36.996 59.457 37.818 L 59.457 37.818 L 59.457 37.818 Q 58.142 39.516 58.142 40.283 L 58.142 40.283 L 58.142 40.283 Q 58.142 40.886 59.019 40.886 L 59.019 40.886 L 59.019 40.886 Q 59.895 40.886 61.484 39.845 L 61.484 39.845 L 61.484 39.845 Q 63.072 38.804 64.223 37.708 L 64.223 37.708 L 65.373 36.667 L 65.373 36.667 Q 67.674 34.641 68.496 33.435 L 68.496 33.435 L 68.496 33.435 Q 68.989 32.833 69.482 32.833 L 69.482 32.833 L 69.482 32.833 Q 69.975 32.833 69.975 33.216 L 69.975 33.216 L 69.975 33.216 Q 69.975 33.545 68.551 35.024 L 68.551 35.024 L 68.551 35.024 Q 65.702 38.037 65.483 38.53 L 65.483 38.53 L 65.483 38.53 Q 64.935 39.79 64.935 40.228 L 64.935 40.228 L 64.935 40.228 Q 64.935 41.105 66.277 41.105 L 66.277 41.105 L 66.277 41.105 Q 67.619 41.105 70.523 38.475 L 70.523 38.475 L 70.523 38.475 Q 70.687 38.256 70.879 38.256 L 70.879 38.256 L 70.879 38.256 Q 71.071 38.256 71.071 38.53 L 71.071 38.53 L 71.071 38.53 Q 71.071 39.187 68.852 40.612 L 68.852 40.612 L 68.852 40.612 Q 66.633 42.036 64.88 42.036 L 64.88 42.036 L 64.88 42.036 Q 63.675 42.036 63.675 40.776 Z " fill="none" vector-effect="non-scaling-stroke" stroke-width="1.4" stroke="rgb(0,0,0)" stroke-linejoin="miter" stroke-linecap="square" stroke-miterlimit="3"/><path d=" M 78.795 28.779 L 78.795 28.779 Q 78.795 28.286 79.288 27.711 L 79.288 27.711 L 79.288 27.711 Q 79.781 27.135 80.192 27.135 L 80.192 27.135 L 80.192 27.135 Q 80.603 27.135 80.849 27.382 L 80.849 27.382 L 80.849 27.382 Q 81.096 27.628 81.096 28.121 L 81.096 28.121 L 81.096 28.121 Q 81.096 28.615 80.521 29.053 L 80.521 29.053 L 80.521 29.053 Q 79.945 29.491 79.562 29.491 L 79.562 29.491 L 79.562 29.491 Q 78.795 29.491 78.795 28.779 L 78.795 28.779 Z " fill="none" vector-effect="non-scaling-stroke" stroke-width="1.4" stroke="rgb(0,0,0)" stroke-linejoin="miter" stroke-linecap="square" stroke-miterlimit="3"/><path d=" M 71.071 40.502 L 71.071 40.502 L 71.071 40.502 Q 71.071 39.626 72.495 38.092 L 72.495 38.092 L 76.604 33.435 L 76.604 33.435 Q 76.932 33.107 76.932 32.888 L 76.932 32.888 L 76.932 32.888 Q 76.932 32.668 76.741 32.504 L 76.741 32.504 L 76.741 32.504 Q 76.549 32.34 76.248 32.34 L 76.248 32.34 L 76.248 32.34 Q 75.946 32.34 75.727 32.531 L 75.727 32.531 L 75.727 32.531 Q 75.508 32.723 74.878 33.49 L 74.878 33.49 L 74.878 33.49 Q 74.248 34.257 73.152 35.544 L 73.152 35.544 L 73.152 35.544 Q 72.057 36.832 71.701 37.27 L 71.701 37.27 L 71.701 37.27 Q 71.345 37.708 70.906 38.229 L 70.906 38.229 L 70.906 38.229 Q 70.468 38.749 70.194 39.078 L 70.194 39.078 L 70.194 39.078 Q 69.482 40.064 69.482 40.776 L 69.482 40.776 L 69.482 40.776 Q 69.482 42.036 70.687 42.036 L 70.687 42.036 L 70.687 42.036 Q 72.44 42.036 74.659 40.612 L 74.659 40.612 L 74.659 40.612 Q 76.878 39.187 76.878 38.53 L 76.878 38.53 L 76.878 38.53 Q 76.878 38.256 76.686 38.256 L 76.686 38.256 L 76.686 38.256 Q 76.494 38.256 76.33 38.475 L 76.33 38.475 L 76.33 38.475 Q 73.426 41.105 71.838 41.105 L 71.838 41.105 L 71.838 41.105 Q 71.071 41.105 71.071 40.502 Z " fill="none" vector-effect="non-scaling-stroke" stroke-width="1.4" stroke="rgb(0,0,0)" stroke-linejoin="miter" stroke-linecap="square" stroke-miterlimit="3"/><path d=" M 105.462 37.325 L 105.462 37.325 Q 106.338 37.325 107.05 36.394 L 107.05 36.394 L 107.05 36.394 Q 107.762 35.462 107.762 34.641 L 107.762 34.641 L 107.762 34.641 Q 107.762 33.819 107.598 33.435 L 107.598 33.435 L 107.598 33.435 Q 106.448 34.421 105.763 35.408 L 105.763 35.408 L 105.763 35.408 Q 105.078 36.394 105.078 36.859 L 105.078 36.859 L 105.078 36.859 Q 105.078 37.325 105.462 37.325 L 105.462 37.325 Z " fill="none" vector-effect="non-scaling-stroke" stroke-width="1.4" stroke="rgb(0,0,0)" stroke-linejoin="miter" stroke-linecap="square" stroke-miterlimit="3"/><path d=" M 124.526 24.889 L 124.526 24.889 L 124.526 24.889 Q 124.526 25.328 124.8 25.328 L 124.8 25.328 L 124.8 25.328 Q 125.841 25.328 126.881 23.739 L 126.881 23.739 L 126.881 23.739 Q 127.922 22.15 128.306 19.959 L 128.306 19.959 L 128.306 19.959 Q 124.526 23.355 124.526 24.889 Z " fill="none" vector-effect="non-scaling-stroke" stroke-width="1.4" stroke="rgb(0,0,0)" stroke-linejoin="miter" stroke-linecap="square" stroke-miterlimit="3"/><path d=" M 137.016 9.605 L 137.016 9.605 L 137.016 9.605 Q 137.016 9.276 136.687 9.276 L 136.687 9.276 L 136.687 9.276 Q 135.318 9.276 134.113 11.112 L 134.113 11.112 L 134.113 11.112 Q 132.907 12.947 132.579 15.193 L 132.579 15.193 L 132.579 15.193 Q 137.016 11.249 137.016 9.605 Z " fill="none" vector-effect="non-scaling-stroke" stroke-width="1.4" stroke="rgb(0,0,0)" stroke-linejoin="miter" stroke-linecap="square" stroke-miterlimit="3"/><path d=" M 119.924 7.852 L 119.924 7.852 L 119.924 7.852 Q 124.854 7.852 127.155 10.619 L 127.155 10.619 L 127.155 10.619 Q 129.456 13.385 129.456 17.384 L 129.456 17.384 L 129.456 17.877 L 131.538 16.069 L 131.538 16.069 Q 131.702 13.056 133.483 10.454 L 133.483 10.454 L 133.483 10.454 Q 135.263 7.852 137.838 7.852 L 137.838 7.852 L 137.838 7.852 Q 138.66 7.852 138.66 8.92 L 138.66 8.92 L 138.66 8.92 Q 138.66 9.989 137.043 11.796 L 137.043 11.796 L 137.043 11.796 Q 135.427 13.604 132.469 16.234 L 132.469 16.234 L 132.469 16.508 L 132.469 16.508 Q 132.469 19.74 134.934 19.74 L 134.934 19.74 L 134.934 19.74 Q 136.687 19.74 137.728 18.809 L 137.728 18.809 L 137.728 18.809 Q 138.167 18.48 138.358 18.48 L 138.358 18.48 L 138.358 18.48 Q 138.55 18.48 138.55 18.781 L 138.55 18.781 L 138.55 18.781 Q 138.55 19.082 138.331 19.165 L 138.331 19.165 L 138.331 19.165 Q 138.112 19.247 137.81 19.493 L 137.81 19.493 L 137.81 19.493 Q 137.509 19.74 137.18 19.959 L 137.18 19.959 L 137.18 19.959 Q 136.304 20.562 134.66 20.562 L 134.66 20.562 L 134.66 20.562 Q 131.812 20.562 131.538 17.056 L 131.538 17.056 L 129.347 18.973 L 129.347 18.973 Q 129.018 21.986 127.621 24.205 L 127.621 24.205 L 127.621 24.205 Q 126.224 26.423 124.471 26.423 L 124.471 26.423 L 124.471 26.423 Q 123.321 26.423 123.321 25.273 L 123.321 25.273 L 123.321 25.273 Q 123.321 23.301 128.47 18.754 L 128.47 18.754 L 128.47 18.754 Q 128.525 18.37 128.525 17.658 L 128.525 17.658 L 128.525 17.658 Q 128.525 13.933 126.197 11.386 L 126.197 11.386 L 126.197 11.386 Q 123.868 8.838 118.664 8.838 L 118.664 8.838 L 118.664 8.838 Q 116.089 8.838 113.022 9.824 L 113.022 9.824 L 113.022 9.824 Q 107.105 11.632 102.777 16.727 L 102.777 16.727 L 102.777 16.727 Q 102.449 17.056 102.12 17.494 L 102.12 17.494 L 102.12 17.494 Q 101.517 18.37 101.298 18.37 L 101.298 18.37 L 101.298 18.37 Q 100.915 18.151 100.915 17.877 L 100.915 17.877 L 100.915 17.877 Q 102.01 16.289 103.928 14.481 L 103.928 14.481 L 103.928 14.481 Q 105.845 12.673 107.899 11.358 L 107.899 11.358 L 107.899 11.358 Q 109.954 10.043 113.213 8.948 L 113.213 8.948 L 113.213 8.948 Q 116.473 7.852 119.924 7.852 Z " fill="none" vector-effect="non-scaling-stroke" stroke-width="1.4" stroke="rgb(0,0,0)" stroke-linejoin="miter" stroke-linecap="square" stroke-miterlimit="3"/><path d=" M 117.185 29.272 L 117.185 29.272 L 118.281 29.327 L 118.281 29.327 Q 119.157 29.381 119.157 29.984 L 119.157 29.984 L 119.157 29.984 Q 119.102 30.148 118.856 30.148 L 118.856 30.148 L 118.856 30.148 Q 118.609 30.148 118.171 30.039 L 118.171 30.039 L 118.171 30.039 Q 117.733 29.929 117.021 29.929 L 117.021 29.929 L 117.021 29.929 Q 112.309 29.929 108.42 32.778 L 108.42 32.778 L 108.42 32.778 Q 108.749 33.49 108.749 34.613 L 108.749 34.613 L 108.749 34.613 Q 108.749 35.736 107.762 36.832 L 107.762 36.832 L 107.762 36.832 Q 106.776 37.927 105.516 37.927 L 105.516 37.927 L 105.516 37.927 Q 104.256 37.927 104.256 37.051 L 104.256 37.051 L 104.256 37.051 Q 104.256 35.243 107.324 32.778 L 107.324 32.778 L 107.324 32.778 Q 106.174 31.025 102.723 31.025 L 102.723 31.025 L 102.723 31.025 Q 99.271 31.025 97.272 33.107 L 97.272 33.107 L 97.272 33.107 Q 95.272 35.188 95.272 38.229 L 95.272 38.229 L 95.272 38.229 Q 95.272 41.269 97.6 43.625 L 97.6 43.625 L 97.6 43.625 Q 99.929 45.98 104.092 45.98 L 104.092 45.98 L 104.092 45.98 Q 111.214 45.98 118.664 40.502 L 118.664 40.502 L 118.664 40.502 Q 121.129 38.694 122.691 37.38 L 122.691 37.38 L 122.691 37.38 Q 124.252 36.065 126.416 33.874 L 126.416 33.874 L 126.416 33.874 Q 128.58 31.682 129.401 30.806 L 129.401 30.806 L 131.757 28.176 L 131.757 28.176 Q 133.62 25.93 136.304 22.945 L 136.304 22.945 L 136.304 22.945 Q 138.988 19.959 141.18 17.521 L 141.18 17.521 L 141.18 17.521 Q 143.371 15.083 145.206 13.248 L 145.206 13.248 L 145.206 13.248 Q 147.041 11.413 148.904 9.715 L 148.904 9.715 L 148.904 9.715 Q 152.793 6.154 154.492 6.154 L 154.492 6.154 L 154.492 6.154 Q 154.985 6.154 154.985 6.565 L 154.985 6.565 L 154.985 6.565 Q 154.985 6.976 154.546 7.195 L 154.546 7.195 L 154.546 7.195 Q 152.465 8.51 149.26 13.632 L 149.26 13.632 L 149.26 13.632 Q 146.055 18.754 141.892 26.095 L 141.892 26.095 L 141.892 26.095 Q 137.728 33.435 134.88 37.38 L 134.88 37.38 L 134.88 37.38 Q 135.701 36.832 140.002 32.559 L 140.002 32.559 L 140.002 32.559 Q 144.302 28.286 149.178 23.547 L 149.178 23.547 L 149.178 23.547 Q 154.053 18.809 160.271 13.851 L 160.271 13.851 L 160.271 13.851 Q 166.489 8.893 170.981 6.811 L 170.981 6.811 L 170.981 6.811 Q 171.748 6.483 172.022 6.483 L 172.022 6.483 L 172.022 6.483 Q 172.624 6.483 172.624 6.976 L 172.624 6.976 L 172.624 6.976 Q 172.624 7.195 172.241 7.359 L 172.241 7.359 L 172.241 7.359 Q 168.461 9.989 161.531 17.275 L 161.531 17.275 L 161.531 17.275 Q 154.601 24.561 148.767 32.531 L 148.767 32.531 L 148.767 32.531 Q 142.933 40.502 142.933 43.844 L 142.933 43.844 L 142.933 43.844 Q 142.933 46.419 145.069 46.419 L 145.069 46.419 L 145.069 46.419 Q 147.973 46.419 151.369 43.734 L 151.369 43.734 L 151.369 43.734 Q 152.958 42.474 153.177 42.474 L 153.177 42.474 L 153.177 42.474 Q 153.725 42.474 153.725 42.858 L 153.725 42.858 L 153.725 42.858 Q 153.725 43.022 153.56 43.187 L 153.56 43.187 L 153.56 43.187 Q 147.644 47.35 144.302 47.35 L 144.302 47.35 L 144.302 47.35 Q 140.96 47.35 140.96 44.227 L 140.96 44.227 L 140.96 44.227 Q 140.96 41.872 143.946 37.078 L 143.946 37.078 L 143.946 37.078 Q 146.932 32.285 151.095 27.3 L 151.095 27.3 L 151.095 27.3 Q 161.011 15.412 166.653 10.81 L 166.653 10.81 L 166.653 10.81 Q 167.256 10.263 167.858 9.715 L 167.858 9.715 L 168.406 9.222 L 168.406 9.222 Q 164.9 10.92 158.628 16.261 L 158.628 16.261 L 158.628 16.261 Q 152.355 21.602 145.726 28.121 L 145.726 28.121 L 145.726 28.121 Q 134.496 39.187 128.58 45.487 L 128.58 45.487 L 128.58 45.487 Q 128.251 45.98 127.867 45.98 L 127.867 45.98 L 127.867 45.98 Q 127.539 45.761 127.539 45.515 L 127.539 45.515 L 127.539 45.515 Q 127.539 45.268 127.703 45.104 L 127.703 45.104 L 127.703 45.104 Q 127.867 44.94 128.415 44.173 L 128.415 44.173 L 128.415 44.173 Q 129.949 42.036 130.99 40.776 L 130.99 40.776 L 130.99 40.776 Q 133.017 38.421 140.604 25.328 L 140.604 25.328 L 140.604 25.328 Q 148.192 12.235 150.821 9.386 L 150.821 9.386 L 150.821 9.386 Q 145.343 13.769 136.633 24.122 L 136.633 24.122 L 136.633 24.122 Q 128.689 33.6 121.184 39.735 L 121.184 39.735 L 121.184 39.735 Q 117.404 42.858 112.775 44.912 L 112.775 44.912 L 112.775 44.912 Q 108.146 46.967 103.572 46.967 L 103.572 46.967 L 103.572 46.967 Q 98.997 46.967 96.423 44.501 L 96.423 44.501 L 96.423 44.501 Q 93.848 42.036 93.848 38.64 L 93.848 38.64 L 93.848 38.64 Q 93.848 35.243 96.395 32.751 L 96.395 32.751 L 96.395 32.751 Q 98.943 30.258 102.805 30.258 L 102.805 30.258 L 102.805 30.258 Q 106.667 30.258 108.091 32.175 L 108.091 32.175 L 108.091 32.175 Q 112.2 29.272 117.185 29.272 Z " fill="none" vector-effect="non-scaling-stroke" stroke-width="1.4" stroke="rgb(0,0,0)" stroke-linejoin="miter" stroke-linecap="square" stroke-miterlimit="3"/><path d=" M 158.162 43.789 L 158.162 43.789 L 158.162 43.789 Q 160.298 43.789 162.928 41.57 L 162.928 41.57 L 162.928 41.57 Q 165.558 39.352 165.996 37.763 L 165.996 37.763 L 165.996 37.763 Q 165.996 37.106 165.174 36.64 L 165.174 36.64 L 165.174 36.64 Q 164.352 36.174 163.311 36.174 L 163.311 36.174 L 163.311 36.174 Q 160.792 36.174 158.682 38.338 L 158.682 38.338 L 158.682 38.338 Q 156.573 40.502 156.573 42.146 L 156.573 42.146 L 156.573 42.146 Q 156.573 43.789 158.162 43.789 Z " fill="none" vector-effect="non-scaling-stroke" stroke-width="1.4" stroke="rgb(0,0,0)" stroke-linejoin="miter" stroke-linecap="square" stroke-miterlimit="3"/><path d=" M 163.805 35.298 L 163.805 35.298 L 163.805 35.298 Q 165.722 35.298 166.982 36.667 L 166.982 36.667 L 166.982 36.667 Q 167.037 36.667 167.858 35.846 L 167.858 35.846 L 167.858 35.846 Q 168.242 35.243 168.735 35.243 L 168.735 35.243 L 168.735 35.243 Q 169.228 35.243 169.228 35.736 L 169.228 35.736 L 169.009 36.229 L 169.009 36.229 Q 168.844 36.503 166.845 38.914 L 166.845 38.914 L 166.845 38.914 Q 164.845 41.324 164.544 41.762 L 164.544 41.762 L 164.544 41.762 Q 164.243 42.2 164.243 43.077 L 164.243 43.077 L 164.243 43.077 Q 164.243 43.68 165.01 43.68 L 165.01 43.68 L 165.01 43.68 Q 166.598 43.68 169.502 41.05 L 169.502 41.05 L 169.502 41.05 Q 169.666 40.831 169.858 40.831 L 169.858 40.831 L 169.858 40.831 Q 170.05 40.831 170.05 41.105 L 170.05 41.105 L 170.05 41.105 Q 170.05 41.762 167.831 43.187 L 167.831 43.187 L 167.831 43.187 Q 165.612 44.611 163.859 44.611 L 163.859 44.611 L 163.859 44.611 Q 162.654 44.611 162.654 43.351 L 162.654 43.351 L 162.654 43.351 Q 162.654 42.913 162.517 42.913 L 162.517 42.913 L 162.517 42.913 Q 162.38 42.913 162.325 42.967 L 162.325 42.967 L 162.325 42.967 Q 159.586 44.775 157.149 44.775 L 157.149 44.775 L 157.149 44.775 Q 154.711 44.775 154.711 42.584 L 154.711 42.584 L 154.711 42.584 Q 154.711 40.283 157.45 37.791 L 157.45 37.791 L 157.45 37.791 Q 160.189 35.298 163.805 35.298 Z " fill="none" vector-effect="non-scaling-stroke" stroke-width="1.4" stroke="rgb(0,0,0)" stroke-linejoin="miter" stroke-linecap="square" stroke-miterlimit="3"/><path d=" M 181.444 36.284 L 181.444 36.284 L 181.444 36.284 Q 181.444 37.544 179.308 39.872 L 179.308 39.872 L 179.308 39.872 Q 177.171 42.2 177.171 43.077 L 177.171 43.077 L 177.171 43.077 Q 177.171 43.68 177.938 43.68 L 177.938 43.68 L 177.938 43.68 Q 179.527 43.68 182.43 41.05 L 182.43 41.05 L 182.43 41.05 Q 182.595 40.831 182.787 40.831 L 182.787 40.831 L 182.787 40.831 Q 182.978 40.831 182.978 41.105 L 182.978 41.105 L 182.978 41.105 Q 182.978 41.762 180.76 43.187 L 180.76 43.187 L 180.76 43.187 Q 178.541 44.611 176.788 44.611 L 176.788 44.611 L 176.788 44.611 Q 175.583 44.611 175.583 43.406 L 175.583 43.406 L 175.583 43.406 Q 175.583 42.2 177.664 39.872 L 177.664 39.872 L 177.664 39.872 Q 179.746 37.544 179.746 36.777 L 179.746 36.777 L 179.746 36.777 Q 179.746 36.01 178.404 36.038 L 178.404 36.038 L 178.404 36.038 Q 177.062 36.065 173.611 37.927 L 173.611 37.927 L 173.611 37.927 Q 172.844 38.64 170.296 41.598 L 170.296 41.598 L 170.296 41.598 Q 167.749 44.556 167.585 44.611 L 167.585 44.611 L 167.585 44.611 Q 166.982 44.611 166.982 44.063 L 166.982 44.063 L 166.982 44.063 Q 167.037 43.899 167.776 42.967 L 167.776 42.967 L 167.776 42.967 Q 168.516 42.036 168.735 41.817 L 168.735 41.817 L 173.172 36.284 L 173.172 36.284 Q 174.816 34.421 175.144 34.421 L 175.144 34.421 L 175.144 34.421 Q 175.802 34.421 175.802 34.969 L 175.802 34.969 L 175.802 34.969 Q 175.637 35.243 175.144 35.791 L 175.144 35.791 L 175.144 35.791 Q 174.651 36.339 174.432 36.722 L 174.432 36.722 L 174.432 36.722 Q 177.555 34.75 179.472 34.75 L 179.472 34.75 L 179.472 34.75 Q 180.294 34.75 180.787 35.134 L 180.787 35.134 L 180.787 35.134 Q 181.28 35.517 181.444 36.284 Z " fill="none" vector-effect="non-scaling-stroke" stroke-width="1.4" stroke="rgb(0,0,0)" stroke-linejoin="miter" stroke-linecap="square" stroke-miterlimit="3"/><path d=" M 183.745 41.598 L 183.745 41.598 L 183.745 41.981 L 183.745 41.981 Q 189.881 39.626 189.881 37.27 L 189.881 37.27 L 189.881 37.27 Q 189.881 36.065 188.374 36.065 L 188.374 36.065 L 188.374 36.065 Q 186.868 36.065 185.306 37.927 L 185.306 37.927 L 185.306 37.927 Q 183.745 39.79 183.745 41.598 Z " fill="none" vector-effect="non-scaling-stroke" stroke-width="1.4" stroke="rgb(0,0,0)" stroke-linejoin="miter" stroke-linecap="square" stroke-miterlimit="3"/><path d=" M 191.25 36.832 L 191.25 36.832 L 191.25 36.832 Q 191.25 40.119 183.91 42.529 L 183.91 42.529 L 183.91 42.529 Q 184.348 43.789 186.32 43.789 L 186.32 43.789 L 186.32 43.789 Q 189.662 43.789 192.675 41.05 L 192.675 41.05 L 192.675 41.05 Q 192.839 40.831 193.031 40.831 L 193.031 40.831 L 193.031 40.831 Q 193.223 40.831 193.223 41.187 L 193.223 41.187 L 193.223 41.187 Q 193.223 41.543 192.236 42.365 L 192.236 42.365 L 192.236 42.365 Q 191.25 43.187 189.443 43.954 L 189.443 43.954 L 189.443 43.954 Q 187.635 44.72 185.882 44.72 L 185.882 44.72 L 185.882 44.72 Q 182.157 44.72 182.157 41.981 L 182.157 41.981 L 182.157 41.981 Q 182.157 39.735 184.43 37.434 L 184.43 37.434 L 184.43 37.434 Q 186.703 35.134 189.333 35.134 L 189.333 35.134 L 189.333 35.134 Q 191.25 35.134 191.25 36.832 Z " fill="none" vector-effect="non-scaling-stroke" stroke-width="1.4" stroke="rgb(0,0,0)" stroke-linejoin="miter" stroke-linecap="square" stroke-miterlimit="3"/><path d=" M 200.618 31.354 L 200.618 31.354 Q 200.618 30.861 201.111 30.285 L 201.111 30.285 L 201.111 30.285 Q 201.604 29.71 202.015 29.71 L 202.015 29.71 L 202.015 29.71 Q 202.426 29.71 202.672 29.957 L 202.672 29.957 L 202.672 29.957 Q 202.919 30.203 202.919 30.696 L 202.919 30.696 L 202.919 30.696 Q 202.919 31.189 202.344 31.628 L 202.344 31.628 L 202.344 31.628 Q 201.769 32.066 201.385 32.066 L 201.385 32.066 L 201.385 32.066 Q 200.618 32.066 200.618 31.354 L 200.618 31.354 Z " fill="none" vector-effect="non-scaling-stroke" stroke-width="1.4" stroke="rgb(0,0,0)" stroke-linejoin="miter" stroke-linecap="square" stroke-miterlimit="3"/><path d=" M 192.894 43.077 L 192.894 43.077 L 192.894 43.077 Q 192.894 42.2 194.318 40.667 L 194.318 40.667 L 198.427 36.01 L 198.427 36.01 Q 198.755 35.681 198.755 35.462 L 198.755 35.462 L 198.755 35.462 Q 198.755 35.243 198.564 35.079 L 198.564 35.079 L 198.564 35.079 Q 198.372 34.914 198.071 34.914 L 198.071 34.914 L 198.071 34.914 Q 197.769 34.914 197.55 35.106 L 197.55 35.106 L 197.55 35.106 Q 197.331 35.298 196.701 36.065 L 196.701 36.065 L 196.701 36.065 Q 196.071 36.832 194.976 38.119 L 194.976 38.119 L 194.976 38.119 Q 193.88 39.407 193.524 39.845 L 193.524 39.845 L 193.524 39.845 Q 193.168 40.283 192.729 40.804 L 192.729 40.804 L 192.729 40.804 Q 192.291 41.324 192.017 41.653 L 192.017 41.653 L 192.017 41.653 Q 191.305 42.639 191.305 43.351 L 191.305 43.351 L 191.305 43.351 Q 191.305 44.611 192.51 44.611 L 192.51 44.611 L 192.51 44.611 Q 194.263 44.611 196.482 43.187 L 196.482 43.187 L 196.482 43.187 Q 198.701 41.762 198.701 41.105 L 198.701 41.105 L 198.701 41.105 Q 198.701 40.831 198.509 40.831 L 198.509 40.831 L 198.509 40.831 Q 198.317 40.831 198.153 41.05 L 198.153 41.05 L 198.153 41.05 Q 195.249 43.68 193.661 43.68 L 193.661 43.68 L 193.661 43.68 Q 192.894 43.68 192.894 43.077 Z " fill="none" vector-effect="non-scaling-stroke" stroke-width="1.4" stroke="rgb(0,0,0)" stroke-linejoin="miter" stroke-linecap="square" stroke-miterlimit="3"/><path d=" M 206.425 39.571 L 206.425 39.571 L 206.425 39.571 Q 206.918 39.571 207.685 39.133 L 207.685 39.133 L 207.685 39.133 Q 207.959 39.133 207.959 39.324 L 207.959 39.324 L 207.959 39.324 Q 207.959 39.516 207.822 39.626 L 207.822 39.626 L 207.822 39.626 Q 207.685 39.735 206.808 40.009 L 206.808 40.009 L 206.808 40.009 Q 205.932 40.283 205.384 40.283 L 205.384 40.283 L 205.384 40.283 Q 203.576 40.283 203.576 39.133 L 203.576 39.133 L 203.576 39.133 Q 203.576 38.694 203.823 38.201 L 203.823 38.201 L 203.823 38.201 Q 204.069 37.708 204.069 37.544 L 204.069 37.544 L 204.069 37.544 Q 204.069 37.38 203.96 37.38 L 203.96 37.38 L 203.96 37.38 Q 202.864 37.763 200.782 39.297 L 200.782 39.297 L 196.893 44.173 L 196.893 44.173 Q 196.455 44.72 196.044 44.72 L 196.044 44.72 L 196.044 44.72 Q 195.633 44.72 195.633 44.447 L 195.633 44.447 L 195.633 44.447 Q 195.633 44.173 196.016 43.57 L 196.016 43.57 L 199.468 39.242 L 199.468 39.242 Q 199.851 38.749 200.892 37.38 L 200.892 37.38 L 200.892 37.38 Q 201.933 36.01 202.125 35.736 L 202.125 35.736 L 202.125 35.736 Q 202.316 35.462 202.892 35.462 L 202.892 35.462 L 202.892 35.462 Q 203.467 35.462 203.467 35.681 L 203.467 35.681 L 203.467 35.681 Q 203.467 35.901 203.357 36.01 L 203.357 36.01 L 202.59 37.106 L 202.59 37.106 Q 202.426 37.325 202.207 37.544 L 202.207 37.544 L 202.207 37.544 Q 202.7 37.434 206.151 35.572 L 206.151 35.572 L 206.151 35.572 Q 206.261 35.517 206.535 35.517 L 206.535 35.517 L 206.535 35.517 Q 206.808 35.517 206.808 35.654 L 206.808 35.654 L 206.808 35.654 Q 206.808 35.791 206.726 35.928 L 206.726 35.928 L 206.726 35.928 Q 206.644 36.065 206.151 36.667 L 206.151 36.667 L 206.151 36.667 Q 205.165 37.873 205.165 38.475 L 205.165 38.475 L 205.165 38.475 Q 205.165 39.571 206.425 39.571 Z " fill="none" vector-effect="non-scaling-stroke" stroke-width="1.4" stroke="rgb(0,0,0)" stroke-linejoin="miter" stroke-linecap="square" stroke-miterlimit="3"/><path d=" M 210.917 43.789 L 210.917 43.789 L 210.917 43.789 Q 213.054 43.789 215.683 41.57 L 215.683 41.57 L 215.683 41.57 Q 218.313 39.352 218.751 37.763 L 218.751 37.763 L 218.751 37.763 Q 218.751 37.106 217.929 36.64 L 217.929 36.64 L 217.929 36.64 Q 217.107 36.174 216.067 36.174 L 216.067 36.174 L 216.067 36.174 Q 213.547 36.174 211.438 38.338 L 211.438 38.338 L 211.438 38.338 Q 209.328 40.502 209.328 42.146 L 209.328 42.146 L 209.328 42.146 Q 209.328 43.789 210.917 43.789 Z " fill="none" vector-effect="non-scaling-stroke" stroke-width="1.4" stroke="rgb(0,0,0)" stroke-linejoin="miter" stroke-linecap="square" stroke-miterlimit="3"/><path d=" M 216.56 35.298 L 216.56 35.298 L 216.56 35.298 Q 218.477 35.298 219.737 36.667 L 219.737 36.667 L 219.737 36.667 Q 219.792 36.667 220.614 35.846 L 220.614 35.846 L 220.614 35.846 Q 220.997 35.243 221.49 35.243 L 221.49 35.243 L 221.49 35.243 Q 221.983 35.243 221.983 35.736 L 221.983 35.736 L 221.764 36.229 L 221.764 36.229 Q 221.6 36.503 219.6 38.914 L 219.6 38.914 L 219.6 38.914 Q 217.601 41.324 217.299 41.762 L 217.299 41.762 L 217.299 41.762 Q 216.998 42.2 216.998 43.077 L 216.998 43.077 L 216.998 43.077 Q 216.998 43.68 217.765 43.68 L 217.765 43.68 L 217.765 43.68 Q 219.354 43.68 222.257 41.05 L 222.257 41.05 L 222.257 41.05 Q 222.421 40.831 222.613 40.831 L 222.613 40.831 L 222.613 40.831 Q 222.805 40.831 222.805 41.105 L 222.805 41.105 L 222.805 41.105 Q 222.805 41.762 220.586 43.187 L 220.586 43.187 L 220.586 43.187 Q 218.367 44.611 216.614 44.611 L 216.614 44.611 L 216.614 44.611 Q 215.409 44.611 215.409 43.351 L 215.409 43.351 L 215.409 43.351 Q 215.409 42.913 215.272 42.913 L 215.272 42.913 L 215.272 42.913 Q 215.135 42.913 215.081 42.967 L 215.081 42.967 L 215.081 42.967 Q 212.341 44.775 209.904 44.775 L 209.904 44.775 L 209.904 44.775 Q 207.466 44.775 207.466 42.584 L 207.466 42.584 L 207.466 42.584 Q 207.466 40.283 210.205 37.791 L 210.205 37.791 L 210.205 37.791 Q 212.944 35.298 216.56 35.298 Z " fill="none" vector-effect="non-scaling-stroke" stroke-width="1.4" stroke="rgb(0,0,0)" stroke-linejoin="miter" stroke-linecap="square" stroke-miterlimit="3"/><path d=" M 258.2 22.041 L 258.2 22.041 L 258.2 22.095 L 258.2 22.095 Q 260.446 21 261.816 19.877 L 261.816 19.877 L 261.816 19.877 Q 263.185 18.754 263.185 18.124 L 263.185 18.124 L 263.185 18.124 Q 263.185 17.494 262.638 17.494 L 262.638 17.494 L 262.638 17.494 Q 261.487 17.494 259.844 19 L 259.844 19 L 259.844 19 Q 258.2 20.507 258.2 22.041 Z " fill="none" vector-effect="non-scaling-stroke" stroke-width="1.4" stroke="rgb(0,0,0)" stroke-linejoin="miter" stroke-linecap="square" stroke-miterlimit="3"/><path d=" M 265.048 17.494 L 265.048 17.494 L 265.048 17.494 Q 265.048 18.699 263.185 20.205 L 263.185 20.205 L 263.185 20.205 Q 261.323 21.712 258.364 22.972 L 258.364 22.972 L 258.364 22.972 Q 259.022 24.287 261.378 24.287 L 261.378 24.287 L 261.378 24.287 Q 264.884 24.287 269.211 21.986 L 269.211 21.986 L 269.211 21.986 Q 273.539 19.685 276.525 16.48 L 276.525 16.48 L 276.525 16.48 Q 279.51 13.276 279.51 10.865 L 279.51 10.865 L 279.51 10.865 Q 279.51 7.304 272.8 7.304 L 272.8 7.304 L 272.8 7.304 Q 266.089 7.304 258.803 12.426 L 258.803 12.426 L 258.803 12.426 Q 251.517 17.549 246.422 24.78 L 246.422 24.78 L 246.915 24.78 L 246.915 24.78 Q 251.736 24.78 256.885 22.643 L 256.885 22.643 L 256.885 22.205 L 256.885 22.205 Q 256.885 20.342 259.46 18.37 L 259.46 18.37 L 259.46 18.37 Q 262.035 16.398 263.843 16.398 L 263.843 16.398 L 263.843 16.398 Q 265.048 16.398 265.048 17.494 Z " fill="none" vector-effect="non-scaling-stroke" stroke-width="1.4" stroke="rgb(0,0,0)" stroke-linejoin="miter" stroke-linecap="square" stroke-miterlimit="3"/><path d=" M 247.682 15.522 L 247.682 15.522 L 246.312 15.412 L 246.312 15.412 Q 244.998 15.412 243.519 17.329 L 243.519 17.329 L 243.519 17.329 Q 242.039 19.247 242.039 20.616 L 242.039 20.616 L 242.039 20.616 Q 242.039 23.684 244.943 24.615 L 244.943 24.615 L 244.943 24.615 Q 250.476 16.946 258.611 11.55 L 258.611 11.55 L 258.611 11.55 Q 266.746 6.154 274.635 6.154 L 274.635 6.154 L 274.635 6.154 Q 280.935 6.154 280.935 9.934 L 280.935 9.934 L 280.935 9.934 Q 280.935 12.673 277.812 16.316 L 277.812 16.316 L 277.812 16.316 Q 274.69 19.959 269.869 22.616 L 269.869 22.616 L 269.869 22.616 Q 265.048 25.273 260.775 25.273 L 260.775 25.273 L 260.775 25.273 Q 257.981 25.273 257.105 23.465 L 257.105 23.465 L 257.105 23.465 Q 251.517 25.656 246.696 25.656 L 246.696 25.656 L 245.819 25.656 L 245.819 25.656 Q 240.889 32.888 240.889 38.201 L 240.889 38.201 L 240.889 38.201 Q 240.889 41.214 242.779 42.94 L 242.779 42.94 L 242.779 42.94 Q 244.669 44.666 248.613 44.666 L 248.613 44.666 L 248.613 44.666 Q 255.132 44.666 260.72 41.16 L 260.72 41.16 L 260.72 41.16 Q 262.035 40.338 262.692 39.79 L 262.692 39.79 L 263.35 39.242 L 263.35 39.242 Q 263.514 39.133 263.843 39.133 L 263.843 39.133 L 263.843 39.133 Q 264.171 39.133 264.171 39.489 L 264.171 39.489 L 264.171 39.489 Q 264.171 39.845 263.678 40.174 L 263.678 40.174 L 263.678 40.174 Q 256.721 45.652 247.682 45.652 L 247.682 45.652 L 247.682 45.652 Q 243.354 45.652 241.245 43.762 L 241.245 43.762 L 241.245 43.762 Q 239.136 41.872 239.136 38.585 L 239.136 38.585 L 239.136 38.585 Q 239.136 32.997 244.34 25.492 L 244.34 25.492 L 244.34 25.492 Q 240.56 24.342 240.56 21 L 240.56 21 L 240.56 21 Q 240.56 18.644 242.861 16.426 L 242.861 16.426 L 242.861 16.426 Q 245.162 14.207 247.079 14.207 L 247.079 14.207 L 247.079 14.207 Q 248.175 14.207 248.175 14.864 L 248.175 14.864 L 248.175 14.864 Q 248.175 15.522 247.682 15.522 Z " fill="none" vector-effect="non-scaling-stroke" stroke-width="1.4" stroke="rgb(0,0,0)" stroke-linejoin="miter" stroke-linecap="square" stroke-miterlimit="3"/><path d=" M 270.745 43.406 L 270.745 43.406 L 270.745 43.406 Q 270.745 42.529 271.348 41.543 L 271.348 41.543 L 271.348 41.543 Q 271.348 41.488 271.348 41.434 L 271.348 41.434 L 271.348 41.434 Q 271.348 41.379 271.293 41.434 L 271.293 41.434 L 271.293 41.434 Q 267.623 44.556 265.212 44.556 L 265.212 44.556 L 265.212 44.556 Q 263.624 44.556 263.624 43.46 L 263.624 43.46 L 263.624 43.46 Q 263.624 42.365 265.157 40.311 L 265.157 40.311 L 265.157 40.311 Q 266.691 38.256 268.253 36.667 L 268.253 36.667 L 268.253 36.667 Q 269.814 35.079 269.704 35.298 L 269.704 35.298 L 269.704 35.298 Q 269.978 35.024 270.362 35.024 L 270.362 35.024 L 270.362 35.024 Q 270.745 35.024 270.745 35.38 L 270.745 35.38 L 270.745 35.38 Q 270.745 35.736 270.417 36.065 L 270.417 36.065 L 270.417 36.065 Q 270.088 36.394 269.184 37.407 L 269.184 37.407 L 269.184 37.407 Q 268.28 38.421 267.76 39.023 L 267.76 39.023 L 267.76 39.023 Q 267.239 39.626 266.527 40.447 L 266.527 40.447 L 266.527 40.447 Q 265.212 42.146 265.212 42.913 L 265.212 42.913 L 265.212 42.913 Q 265.212 43.515 266.089 43.515 L 266.089 43.515 L 266.089 43.515 Q 266.965 43.515 268.554 42.474 L 268.554 42.474 L 268.554 42.474 Q 270.143 41.434 271.293 40.338 L 271.293 40.338 L 272.444 39.297 L 272.444 39.297 Q 274.744 37.27 275.566 36.065 L 275.566 36.065 L 275.566 36.065 Q 276.059 35.462 276.552 35.462 L 276.552 35.462 L 276.552 35.462 Q 277.045 35.462 277.045 35.846 L 277.045 35.846 L 277.045 35.846 Q 277.045 36.174 275.621 37.654 L 275.621 37.654 L 275.621 37.654 Q 272.772 40.667 272.553 41.16 L 272.553 41.16 L 272.553 41.16 Q 272.005 42.42 272.005 42.858 L 272.005 42.858 L 272.005 42.858 Q 272.005 43.734 273.347 43.734 L 273.347 43.734 L 273.347 43.734 Q 274.69 43.734 277.593 41.105 L 277.593 41.105 L 277.593 41.105 Q 277.757 40.886 277.949 40.886 L 277.949 40.886 L 277.949 40.886 Q 278.141 40.886 278.141 41.16 L 278.141 41.16 L 278.141 41.16 Q 278.141 41.817 275.922 43.241 L 275.922 43.241 L 275.922 43.241 Q 273.703 44.666 271.95 44.666 L 271.95 44.666 L 271.95 44.666 Q 270.745 44.666 270.745 43.406 Z " fill="none" vector-effect="non-scaling-stroke" stroke-width="1.4" stroke="rgb(0,0,0)" stroke-linejoin="miter" stroke-linecap="square" stroke-miterlimit="3"/><path d=" M 289.809 36.339 L 289.809 36.339 L 289.809 36.339 Q 289.809 37.599 287.673 39.927 L 287.673 39.927 L 287.673 39.927 Q 285.536 42.255 285.536 43.132 L 285.536 43.132 L 285.536 43.132 Q 285.536 43.734 286.303 43.734 L 286.303 43.734 L 286.303 43.734 Q 287.892 43.734 290.795 41.105 L 290.795 41.105 L 290.795 41.105 Q 290.96 40.886 291.152 40.886 L 291.152 40.886 L 291.152 40.886 Q 291.343 40.886 291.343 41.16 L 291.343 41.16 L 291.343 41.16 Q 291.343 41.817 289.125 43.241 L 289.125 43.241 L 289.125 43.241 Q 286.906 44.666 285.153 44.666 L 285.153 44.666 L 285.153 44.666 Q 283.948 44.666 283.948 43.46 L 283.948 43.46 L 283.948 43.46 Q 283.948 42.255 286.029 39.927 L 286.029 39.927 L 286.029 39.927 Q 288.111 37.599 288.111 36.832 L 288.111 36.832 L 288.111 36.832 Q 288.111 36.065 286.769 36.092 L 286.769 36.092 L 286.769 36.092 Q 285.427 36.12 281.976 37.982 L 281.976 37.982 L 281.976 37.982 Q 281.209 38.694 278.661 41.653 L 278.661 41.653 L 278.661 41.653 Q 276.114 44.611 275.95 44.666 L 275.95 44.666 L 275.95 44.666 Q 275.347 44.666 275.347 44.118 L 275.347 44.118 L 275.347 44.118 Q 275.402 43.954 276.141 43.022 L 276.141 43.022 L 276.141 43.022 Q 276.881 42.091 277.1 41.872 L 277.1 41.872 L 281.537 36.339 L 281.537 36.339 Q 283.181 34.476 283.509 34.476 L 283.509 34.476 L 283.509 34.476 Q 284.167 34.476 284.167 35.024 L 284.167 35.024 L 284.167 35.024 Q 284.003 35.298 283.509 35.846 L 283.509 35.846 L 283.509 35.846 Q 283.016 36.394 282.797 36.777 L 282.797 36.777 L 282.797 36.777 Q 285.92 34.805 287.837 34.805 L 287.837 34.805 L 287.837 34.805 Q 288.659 34.805 289.152 35.188 L 289.152 35.188 L 289.152 35.188 Q 289.645 35.572 289.809 36.339 Z " fill="none" vector-effect="non-scaling-stroke" stroke-width="1.4" stroke="rgb(0,0,0)" stroke-linejoin="miter" stroke-linecap="square" stroke-miterlimit="3"/><path d=" M 314.352 19.356 L 314.352 19.356 L 314.352 19.356 Q 314.352 18.973 313.914 18.973 L 313.914 18.973 L 313.914 18.973 Q 312.16 18.973 303.176 29.108 L 303.176 29.108 L 303.176 29.108 Q 307.34 26.862 310.846 23.712 L 310.846 23.712 L 310.846 23.712 Q 314.352 20.562 314.352 19.356 Z " fill="none" vector-effect="non-scaling-stroke" stroke-width="1.4" stroke="rgb(0,0,0)" stroke-linejoin="miter" stroke-linecap="square" stroke-miterlimit="3"/><path d=" M 289.371 44.556 L 289.371 44.556 L 289.371 44.556 Q 288.988 44.556 288.988 44.09 L 288.988 44.09 L 288.988 44.09 Q 288.988 43.625 289.426 43.296 L 289.426 43.296 L 289.426 43.296 Q 295.068 36.448 300.547 30.368 L 300.547 30.368 L 300.547 30.368 Q 311.996 17.822 315.064 17.822 L 315.064 17.822 L 315.064 17.822 Q 315.393 17.822 315.721 18.096 L 315.721 18.096 L 315.721 18.096 Q 316.05 18.37 316.05 18.754 L 316.05 18.754 L 316.05 18.754 Q 316.05 20.342 311.531 24.15 L 311.531 24.15 L 311.531 24.15 Q 307.011 27.957 302.026 30.422 L 302.026 30.422 L 302.026 30.422 Q 299.835 32.888 296.822 36.394 L 296.822 36.394 L 296.822 36.394 Q 299.396 34.805 301.149 34.805 L 301.149 34.805 L 301.149 34.805 Q 301.971 34.805 302.491 35.188 L 302.491 35.188 L 302.491 35.188 Q 303.012 35.572 303.231 36.339 L 303.231 36.339 L 303.231 36.339 Q 303.231 37.599 301.095 39.927 L 301.095 39.927 L 301.095 39.927 Q 298.958 42.255 298.958 43.132 L 298.958 43.132 L 298.958 43.132 Q 298.958 43.734 299.725 43.734 L 299.725 43.734 L 299.725 43.734 Q 301.314 43.734 304.217 41.105 L 304.217 41.105 L 304.217 41.105 Q 304.381 40.886 304.573 40.886 L 304.573 40.886 L 304.573 40.886 Q 304.765 40.886 304.765 41.16 L 304.765 41.16 L 304.765 41.16 Q 304.765 41.817 302.546 43.241 L 302.546 43.241 L 302.546 43.241 Q 300.328 44.666 298.575 44.666 L 298.575 44.666 L 298.575 44.666 Q 297.369 44.666 297.369 43.46 L 297.369 43.46 L 297.369 43.46 Q 297.369 42.255 299.451 39.927 L 299.451 39.927 L 299.451 39.927 Q 301.533 37.599 301.533 36.832 L 301.533 36.832 L 301.533 36.832 Q 301.533 36.065 300.026 36.092 L 300.026 36.092 L 300.026 36.092 Q 298.52 36.12 295.507 37.927 L 295.507 37.927 L 295.507 37.927 Q 290.905 43.187 290.576 43.515 L 290.576 43.515 L 290.576 43.515 Q 290.248 43.844 290.029 44.063 L 290.029 44.063 L 290.029 44.063 Q 289.59 44.556 289.371 44.556 Z " fill="none" vector-effect="non-scaling-stroke" stroke-width="1.4" stroke="rgb(0,0,0)" stroke-linejoin="miter" stroke-linecap="square" stroke-miterlimit="3"/><path d=" M 307.175 43.844 L 307.175 43.844 L 307.175 43.844 Q 309.312 43.844 311.941 41.625 L 311.941 41.625 L 311.941 41.625 Q 314.571 39.407 315.009 37.818 L 315.009 37.818 L 315.009 37.818 Q 315.009 37.161 314.187 36.695 L 314.187 36.695 L 314.187 36.695 Q 313.366 36.229 312.325 36.229 L 312.325 36.229 L 312.325 36.229 Q 309.805 36.229 307.696 38.393 L 307.696 38.393 L 307.696 38.393 Q 305.587 40.557 305.587 42.2 L 305.587 42.2 L 305.587 42.2 Q 305.587 43.844 307.175 43.844 Z " fill="none" vector-effect="non-scaling-stroke" stroke-width="1.4" stroke="rgb(0,0,0)" stroke-linejoin="miter" stroke-linecap="square" stroke-miterlimit="3"/><path d=" M 312.818 35.353 L 312.818 35.353 L 312.818 35.353 Q 314.735 35.353 315.995 36.722 L 315.995 36.722 L 315.995 36.722 Q 316.05 36.722 316.872 35.901 L 316.872 35.901 L 316.872 35.901 Q 317.255 35.298 317.748 35.298 L 317.748 35.298 L 317.748 35.298 Q 318.241 35.298 318.241 35.791 L 318.241 35.791 L 318.022 36.284 L 318.022 36.284 Q 317.858 36.558 315.858 38.968 L 315.858 38.968 L 315.858 38.968 Q 313.859 41.379 313.557 41.817 L 313.557 41.817 L 313.557 41.817 Q 313.256 42.255 313.256 43.132 L 313.256 43.132 L 313.256 43.132 Q 313.256 43.734 314.023 43.734 L 314.023 43.734 L 314.023 43.734 Q 315.612 43.734 318.515 41.105 L 318.515 41.105 L 318.515 41.105 Q 318.68 40.886 318.871 40.886 L 318.871 40.886 L 318.871 40.886 Q 319.063 40.886 319.063 41.16 L 319.063 41.16 L 319.063 41.16 Q 319.063 41.817 316.844 43.241 L 316.844 43.241 L 316.844 43.241 Q 314.626 44.666 312.873 44.666 L 312.873 44.666 L 312.873 44.666 Q 311.667 44.666 311.667 43.406 L 311.667 43.406 L 311.667 43.406 Q 311.667 42.967 311.531 42.967 L 311.531 42.967 L 311.531 42.967 Q 311.394 42.967 311.339 43.022 L 311.339 43.022 L 311.339 43.022 Q 308.6 44.83 306.162 44.83 L 306.162 44.83 L 306.162 44.83 Q 303.724 44.83 303.724 42.639 L 303.724 42.639 L 303.724 42.639 Q 303.724 40.338 306.463 37.845 L 306.463 37.845 L 306.463 37.845 Q 309.202 35.353 312.818 35.353 Z " fill="none" vector-effect="non-scaling-stroke" stroke-width="1.4" stroke="rgb(0,0,0)" stroke-linejoin="miter" stroke-linecap="square" stroke-miterlimit="3"/></g></svg>
